<?xml version="1.0" encoding="UTF-8"?>
<svg id="Layer_1" xmlns="http://www.w3.org/2000/svg" xmlns:xlink="http://www.w3.org/1999/xlink" version="1.1" viewBox="0 0 181.2 209.3">
  <!-- Generator: Adobe Illustrator 29.7.1, SVG Export Plug-In . SVG Version: 2.1.1 Build 8)  -->
  <defs>
    <style>
      .st0, .st1, .st2, .st3, .st4, .st5, .st6, .st7, .st8, .st9, .st10, .st11, .st12, .st13, .st14, .st15, .st16, .st17, .st18, .st19, .st20, .st21, .st22, .st23, .st24, .st25, .st26, .st27, .st28, .st29, .st30, .st31, .st32, .st33, .st34, .st35, .st36, .st37, .st38, .st39 {
        isolation: isolate;
      }

      .st0, .st1, .st2, .st40, .st41, .st4, .st42, .st6, .st9, .st10, .st11, .st12, .st13, .st14, .st15, .st16, .st43, .st18, .st19, .st20, .st21, .st22, .st23, .st24, .st25, .st26, .st27, .st28, .st30, .st31, .st33, .st44, .st35, .st36, .st37, .st38, .st39 {
        fill: none;
      }

      .st0, .st1, .st2, .st9, .st10, .st11, .st12, .st13, .st14, .st19, .st20, .st21, .st22, .st23, .st24, .st25, .st26, .st27, .st28, .st31, .st33 {
        stroke: #9bd;
      }

      .st0, .st1, .st40, .st41, .st4, .st6, .st15, .st16, .st43, .st18, .st19, .st20, .st21, .st22, .st23, .st24, .st25, .st26, .st27, .st28, .st30, .st31, .st33, .st44, .st35, .st36, .st37, .st38, .st39 {
        stroke-linecap: round;
      }

      .st0, .st1, .st19, .st20, .st21, .st22, .st23, .st24, .st25, .st26, .st27, .st28, .st31, .st33 {
        opacity: .65;
      }

      .st0, .st9, .st36, .st39 {
        stroke-width: .7px;
      }

      .st45 {
        fill: url(#linear-gradient);
        stroke: #3a5a9a;
        stroke-linejoin: round;
        stroke-width: 3.5px;
      }

      .st1, .st11, .st15, .st35, .st38 {
        stroke-width: .5px;
      }

      .st2, .st6, .st9, .st10, .st11, .st12, .st13, .st14 {
        opacity: .75;
      }

      .st3 {
        fill: #568;
      }

      .st40 {
        stroke-width: 1.8px;
      }

      .st40, .st41, .st43, .st44 {
        stroke: #568;
      }

      .st41 {
        stroke-width: 1.4px;
      }

      .st4 {
        stroke: #fce61f;
      }

      .st4, .st42, .st16, .st18, .st30, .st37 {
        stroke-width: .8px;
      }

      .st4, .st18 {
        opacity: .8;
      }

      .st42 {
        stroke: #000;
      }

      .st6 {
        stroke: #b07aa1;
        stroke-width: .75px;
      }

      .st7 {
        fill: #8cc082;
      }

      .st8 {
        fill: #79b;
      }

      .st8, .st36, .st39 {
        opacity: .7;
      }

      .st9, .st31, .st33 {
        stroke-miterlimit: 2.8;
      }

      .st10 {
        stroke-width: .55px;
      }

      .st10, .st20, .st27 {
        stroke-miterlimit: 2.2;
      }

      .st11, .st21, .st26 {
        stroke-miterlimit: 2;
      }

      .st12, .st23, .st24 {
        stroke-miterlimit: 1.8;
      }

      .st12, .st28 {
        stroke-width: .45px;
      }

      .st13 {
        stroke-width: .65px;
      }

      .st13, .st25, .st28 {
        stroke-miterlimit: 2.6;
      }

      .st14 {
        stroke-width: .4px;
      }

      .st14, .st19, .st22 {
        stroke-miterlimit: 1.6;
      }

      .st15 {
        opacity: .25;
      }

      .st15, .st18 {
        stroke: #8cc082;
      }

      .st15, .st35, .st38 {
        stroke-dasharray: 2 3;
      }

      .st16, .st30, .st37 {
        opacity: .85;
      }

      .st16, .st38 {
        stroke: #e8c547;
      }

      .st43 {
        stroke-width: 2.2px;
      }

      .st17 {
        fill: #c8d6e8;
        font-family: HelveticaNeue-Medium, 'Helvetica Neue';
        font-size: 18px;
        font-weight: 500;
        letter-spacing: .08em;
      }

      .st19, .st20 {
        stroke-width: .28px;
      }

      .st21 {
        stroke-width: .25px;
      }

      .st22 {
        stroke-width: .24px;
      }

      .st23 {
        stroke-width: .31px;
      }

      .st24 {
        stroke-width: .27px;
      }

      .st25 {
        stroke-width: .32px;
      }

      .st26, .st31 {
        stroke-width: .35px;
      }

      .st27 {
        stroke-width: .39px;
      }

      .st29 {
        fill: #e8c547;
      }

      .st30 {
        stroke: #8ab4e0;
      }

      .st32 {
        fill: #e07653;
      }

      .st33 {
        stroke-width: .49px;
      }

      .st44 {
        stroke-width: 2.5px;
      }

      .st34 {
        fill: #5bbcd6;
      }

      .st35, .st37, .st39 {
        stroke: #5bbcd6;
      }

      .st35, .st38 {
        opacity: .3;
      }

      .st36 {
        stroke: #79b;
      }
    </style>
    <linearGradient id="linear-gradient" x1="-637.92" y1="497.8" x2="-637.92" y2="496.8" gradientTransform="translate(114405.4 103195.6) scale(179.2 -207.3)" gradientUnits="userSpaceOnUse">
      <stop offset="0" stop-color="#1a1f3a"/>
      <stop offset="1" stop-color="#0d1225"/>
    </linearGradient>
  </defs>
  <polygon class="st45" points="90.6 1 180.2 53.3 180.2 156 90.6 208.3 1 156 1 53.3 90.6 1"/>
  <polygon class="st42" points="90.6 8 173.5 56.3 173.5 152.7 90.6 201 7.7 152.7 7.7 56.3 90.6 8"/>
  <g transform="translate(90.6,36) scale(1.35) translate(-90.6,-27)">
  <g>
    <path class="st2" d="M85.39,26.35l8.86-1.56c2.45-.43,4.78,1.2,5.21,3.65h0c.43,2.45-1.2,4.78-3.65,5.21l-8.86,1.56c-2.45.43-4.78-1.2-5.21-3.65h0c-.43-2.45,1.2-4.78,3.65-5.21Z"/>
    <path class="st1" d="M86.05,27.25l7.88-1.39c1.9-.34,3.72.94,4.05,2.84h0c.34,1.9-.94,3.72-2.84,4.05l-7.88,1.39c-1.9.34-3.72-.94-4.05-2.84h0c-.34-1.9.94-3.72,2.84-4.05Z"/>
    <path class="st0" d="M84.66,28c.93,2.38,1.59,3.27,1.04,5.91"/>
    <path class="st0" d="M87.58,27.28c1.05,3.06,1.71,3.96,1.11,6.3"/>
    <path class="st0" d="M91.03,26.67c1.05,3.06,1.71,3.96,1.11,6.3"/>
    <path class="st0" d="M94.02,26.35c.93,2.38,1.59,3.27,1.04,5.91"/>
  </g>
  <g>
    <path class="st9" d="M70.12,21.96l5.92,2.15c1.63.6,2.48,2.4,1.88,4.04h0c-.6,1.63-2.4,2.48-4.04,1.88l-5.92-2.15c-1.63-.6-2.48-2.4-1.88-4.04h0c.6-1.63,2.4-2.48,4.04-1.88Z"/>
    <path class="st31" d="M70.21,22.74l5.26,1.92c1.27.46,1.93,1.87,1.46,3.14h0c-.46,1.27-1.87,1.93-3.14,1.46l-5.26-1.92c-1.27-.46-1.93-1.87-1.46-3.14h0c.46-1.27,1.87-1.93,3.14-1.46Z"/>
    <path class="st33" d="M69.43,22.83c-.39,2.09-.3,2.87-1.44,3.95"/>
    <path class="st33" d="M72.11,23.66c-.56,2.55-.35,3-1.53,4.21"/>
    <path class="st33" d="M74.69,24.74c-.39,2.09-.18,2.54-1.44,3.95"/>
  </g>
  <g>
    <path class="st13" d="M107.11,26.59l5.3-2.47c1.46-.68,3.2-.05,3.89,1.41h0c.68,1.46.05,3.2-1.41,3.89l-5.3,2.47c-1.46.68-3.2.05-3.89-1.41h0c-.68-1.46-.05-3.2,1.41-3.89Z"/>
    <path class="st25" d="M107.68,27.04l4.71-2.2c1.14-.53,2.49-.04,3.02,1.1h0c.53,1.14.04,2.49-1.1,3.02l-4.71,2.2c-1.14.53-2.49.04-3.02-1.1h0c-.53-1.14-.04-2.49,1.1-3.02Z"/>
    <path class="st28" d="M107.52,27.47c1.12,1.63,1.55,1.79,1.65,3.53"/>
    <path class="st28" d="M110.12,26.11c1.31,2.04,1.74,2.2,1.76,3.77"/>
    <path class="st28" d="M112.53,25.13c1.12,1.63,1.55,1.79,1.65,3.53"/>
  </g>
  <g>
    <path class="st12" d="M59.5,31.18l3.32,2.32c.92.64,1.14,1.9.5,2.82h0c-.64.92-1.9,1.14-2.82.5l-3.32-2.32c-.92-.64-1.14-1.9-.5-2.82h0c.64-.92,1.9-1.14,2.82-.5Z"/>
    <path class="st24" d="M59.43,31.68l2.95,2.06c.71.5.89,1.48.39,2.19h0c-.5.71-1.48.89-2.19.39l-2.95-2.06c-.71-.5-.89-1.48-.39-2.19h0c.5-.71,1.48-.89,2.19-.39Z"/>
    <path class="st23" d="M59.48,31.99c-.59,1.23-.53,1.55-1.55,2.21"/>
    <path class="st23" d="M61.33,33.28c-.59,1.23-.53,1.55-1.55,2.21"/>
  </g>
  <g>
    <path class="st14" d="M85.05,17.59l2.76-2.31c.76-.64,1.9-.54,2.54.22h0c.64.76.54,1.9-.22,2.54l-2.76,2.31c-.76.64-1.9.54-2.54-.22h0c-.64-.76-.54-1.9.22-2.54Z"/>
    <path class="st22" d="M85.46,17.77l2.45-2.06c.59-.5,1.48-.42,1.97.17h0c.5.59.42,1.48-.17,1.97l-2.45,2.06c-.59.5-1.48.42-1.97-.17h0c-.5-.59-.42-1.48.17-1.97Z"/>
    <path class="st19" d="M85.89,17.67c.92.79,1.21.82,1.54,1.84"/>
    <path class="st19" d="M87.42,16.38c.92.79,1.21.82,1.54,1.84"/>
  </g>
  <g>
    <path class="st10" d="M75.75,34.32l4.93.43c1.36.12,2.37,1.32,2.25,2.68h0c-.12,1.36-1.32,2.37-2.68,2.25l-4.93-.43c-1.36-.12-2.37-1.32-2.25-2.68h0c.12-1.36,1.32-2.37,2.68-2.25Z"/>
    <path class="st20" d="M75.98,34.89l4.38.38c1.06.09,1.84,1.03,1.75,2.09h0c-.09,1.06-1.03,1.84-2.09,1.75l-4.38-.38c-1.06-.09-1.84-1.03-1.75-2.09h0c.09-1.06,1.03-1.84,2.09-1.75Z"/>
    <path class="st27" d="M75.95,35.16c.13,1.67.38,1.97-.29,3.29"/>
    <path class="st27" d="M78.42,35.38c.13,1.67.38,1.97-.29,3.29"/>
    <path class="st27" d="M80.34,35.55c.13,1.67.38,1.97-.29,3.29"/>
  </g>
  <g>
    <path class="st11" d="M100.24,20.41l4.35-1.16c1.2-.32,2.43.39,2.76,1.59h0c.32,1.2-.39,2.43-1.59,2.76l-4.35,1.16c-1.2.32-2.43-.39-2.76-1.59h0c-.32-1.2.39-2.43,1.59-2.76Z"/>
    <path class="st21" d="M100.62,20.83l3.86-1.04c.93-.25,1.89.3,2.14,1.24h0c.25.93-.3,1.89-1.24,2.14l-3.86,1.04c-.93.25-1.89-.3-2.14-1.24h0c-.25-.93.3-1.89,1.24-2.14Z"/>
    <path class="st26" d="M100.44,21.13c.63,1.38.94,1.56.78,2.9"/>
    <path class="st26" d="M103.09,20.42c.63,1.38.94,1.56.78,2.9"/>
  </g>
  <g>
    <path class="st12" d="M105.26,33.23l3.51,2.02c.97.56,1.3,1.8.74,2.77h0c-.56.97-1.8,1.3-2.77.74l-3.51-2.02c-.97-.56-1.3-1.8-.74-2.77h0c.56-.97,1.8-1.3,2.77-.74Z"/>
    <path class="st24" d="M105.23,33.74l3.12,1.8c.75.43,1.01,1.4.58,2.15h0c-.43.75-1.4,1.01-2.15.58l-3.12-1.8c-.75-.43-1.01-1.4-.58-2.15h0c.43-.75,1.4-1.01,2.15-.58Z"/>
    <path class="st23" d="M105.51,34.16c-.48,1.28-.4,1.59-1.35,2.34"/>
    <path class="st23" d="M107.65,35.39c-.48,1.28-.4,1.59-1.35,2.34"/>
  </g>
  </g>
  <line class="st44" x1="90.6" y1="55" x2="90.6" y2="78"/>
  <line class="st43" x1="90.6" y1="78" x2="58" y2="100"/>
  <line class="st43" x1="90.6" y1="78" x2="123" y2="100"/>
  <line class="st40" x1="58" y1="100" x2="38" y2="125"/>
  <line class="st40" x1="58" y1="100" x2="72" y2="125"/>
  <line class="st40" x1="123" y1="100" x2="108" y2="125"/>
  <line class="st40" x1="123" y1="100" x2="143" y2="125"/>
  <line class="st41" x1="38" y1="125" x2="28" y2="148"/>
  <line class="st41" x1="38" y1="125" x2="48" y2="148"/>
  <line class="st41" x1="72" y1="125" x2="65" y2="148"/>
  <line class="st41" x1="72" y1="125" x2="82" y2="148"/>
  <line class="st41" x1="108" y1="125" x2="100" y2="148"/>
  <line class="st41" x1="108" y1="125" x2="118" y2="148"/>
  <line class="st41" x1="143" y1="125" x2="133" y2="148"/>
  <line class="st41" x1="143" y1="125" x2="153" y2="148"/>
  <!-- Drift: gold → 28 -->
  <path style="fill:none; stroke:#e8c547; stroke-width:0.8px; opacity:0.85; stroke-linecap:round" d="M90.6,55.0 C91.3,55.4 95.7,56.7 94.7,57.6 C93.8,58.4 85.1,59.3 84.9,60.1 C84.7,61.0 92.7,61.8 93.4,62.7 C94.1,63.5 89.0,64.4 88.9,65.2 C88.8,66.1 93.0,66.9 92.7,67.8 C92.5,68.6 87.4,69.5 87.4,70.3 C87.5,71.2 92.8,72.0 93.0,72.9 C93.1,73.7 88.6,74.6 88.2,75.4 C87.9,76.3 90.3,76.9 90.6,78.0 C90.9,79.1 91.0,81.7 90.0,81.8 C89.0,81.9 85.3,77.9 84.6,78.5 C84.0,79.1 86.7,84.8 86.0,85.3 C85.3,85.8 81.4,81.5 80.4,81.7 C79.5,81.9 81.3,86.1 80.4,86.4 C79.6,86.6 75.6,82.3 75.2,83.3 C74.8,84.3 78.7,91.5 78.1,92.2 C77.5,92.9 72.6,87.3 71.7,87.5 C70.8,87.7 73.1,92.7 72.5,93.3 C71.9,94.0 68.7,90.8 68.1,91.5 C67.4,92.1 69.5,96.8 68.8,97.2 C68.0,97.6 64.3,93.8 63.4,94.0 C62.5,94.1 63.8,97.6 63.1,98.2 C62.5,98.8 60.4,97.3 59.6,97.6 C58.7,97.9 58.1,98.9 58.0,100.0 C57.9,101.1 59.5,103.5 58.7,104.0 C57.8,104.4 53.2,101.8 52.8,102.7 C52.4,103.5 57.1,108.4 56.4,109.0 C55.6,109.5 49.2,105.5 48.4,106.0 C47.6,106.5 52.1,111.2 51.6,112.0 C51.1,112.7 45.8,109.6 45.4,110.4 C45.0,111.2 49.3,115.8 49.1,116.8 C48.9,117.8 44.9,115.7 44.1,116.2 C43.4,116.8 45.7,119.8 44.5,119.9 C43.3,120.1 37.1,116.3 37.0,117.4 C36.9,118.4 43.6,124.9 43.7,126.2 C43.9,127.4 39.8,125.1 38.0,125.0 C36.2,124.9 32.6,124.5 32.9,125.5 C33.1,126.5 39.3,130.1 39.4,131.1 C39.6,132.1 34.1,130.6 33.8,131.4 C33.4,132.1 38.3,135.2 37.5,135.7 C36.7,136.3 29.0,133.8 28.9,134.7 C28.8,135.6 37.4,140.2 36.9,140.9 C36.4,141.6 26.5,138.2 25.8,138.9 C25.2,139.5 33.3,143.9 33.3,144.8 C33.2,145.7 26.4,143.7 25.5,144.2 C24.6,144.7 27.6,147.4 28.0,148.0"/>

  <!-- Drift: coral → 48 -->
  <path style="fill:none; stroke:#e07653; stroke-width:0.8px; opacity:0.8; stroke-linecap:round" d="M90.6,55.0 C91.2,55.4 94.9,56.7 94.5,57.6 C94.1,58.4 88.4,59.3 88.3,60.1 C88.1,61.0 93.8,61.8 93.5,62.7 C93.3,63.5 87.1,64.4 86.9,65.2 C86.7,66.1 91.9,66.9 92.2,67.8 C92.4,68.6 88.2,69.5 88.4,70.3 C88.6,71.2 93.8,72.0 93.5,72.9 C93.2,73.7 87.0,74.6 86.5,75.4 C86.0,76.3 90.0,76.9 90.6,78.0 C91.2,79.1 91.4,82.3 90.3,82.3 C89.3,82.3 84.8,77.3 84.3,78.0 C83.7,78.7 87.4,85.7 86.8,86.5 C86.3,87.2 81.8,82.2 80.9,82.3 C79.9,82.5 81.8,86.8 81.1,87.3 C80.4,87.9 77.3,84.8 76.7,85.5 C76.1,86.2 78.5,91.3 77.6,91.5 C76.7,91.8 72.2,86.6 71.4,87.0 C70.6,87.4 73.5,93.3 72.8,93.7 C72.0,94.1 67.4,89.0 66.7,89.4 C65.9,89.8 68.8,95.7 68.1,96.2 C67.4,96.7 62.9,91.7 62.5,92.6 C62.0,93.4 66.0,100.9 65.3,101.5 C64.6,102.0 59.6,96.2 58.4,95.9 C57.2,95.7 58.1,98.8 58.0,100.0 C57.9,101.2 58.9,103.0 57.7,103.2 C56.6,103.4 51.5,100.5 51.2,101.4 C50.9,102.3 56.0,107.5 55.8,108.5 C55.6,109.5 50.4,106.5 49.8,107.1 C49.2,107.8 52.7,111.7 52.1,112.4 C51.6,113.1 46.9,110.5 46.4,111.2 C45.9,112.0 50.0,116.4 49.3,116.9 C48.5,117.5 42.3,113.6 41.8,114.4 C41.4,115.2 47.4,121.1 46.5,121.6 C45.7,122.0 37.7,116.8 36.8,117.2 C35.9,117.6 41.0,122.8 41.2,124.1 C41.4,125.4 38.8,124.3 38.0,125.0 C37.2,125.7 36.0,127.7 36.5,128.4 C37.1,129.1 41.2,128.2 41.2,129.1 C41.3,130.0 36.1,133.1 36.6,133.8 C37.1,134.5 43.6,132.6 44.1,133.3 C44.5,134.0 39.0,137.3 39.3,138.1 C39.6,138.9 45.1,137.4 45.9,138.0 C46.7,138.6 43.7,140.8 44.0,141.5 C44.3,142.3 47.8,141.7 47.7,142.7 C47.6,143.6 43.6,146.3 43.6,147.2 C43.6,148.1 47.3,147.9 48.0,148.0"/>

  <!-- Drift: slate → 65 -->
  <path style="fill:none; stroke:#7799bb; stroke-width:0.7px; opacity:0.7; stroke-linecap:round" d="M90.6,55.0 C90.7,55.4 91.8,56.7 91.3,57.6 C90.7,58.4 86.7,59.3 87.4,60.1 C88.2,61.0 95.9,61.8 95.9,62.7 C95.9,63.5 88.0,64.4 87.5,65.2 C87.0,66.1 93.1,66.9 93.0,67.8 C92.8,68.6 86.6,69.5 86.7,70.3 C86.8,71.2 93.5,72.0 93.6,72.9 C93.8,73.7 88.3,74.6 87.8,75.4 C87.3,76.3 90.2,76.9 90.6,78.0 C91.0,79.1 91.3,82.1 90.0,81.9 C88.8,81.6 83.8,75.8 83.2,76.5 C82.7,77.2 87.1,85.3 86.5,86.0 C85.9,86.6 80.3,80.0 79.5,80.3 C78.7,80.7 82.3,87.6 81.6,88.1 C80.9,88.6 76.0,82.9 75.2,83.4 C74.5,83.8 78.0,90.5 77.2,91.0 C76.5,91.5 71.7,86.0 70.8,86.2 C69.9,86.4 72.7,92.1 71.9,92.4 C71.0,92.7 66.3,87.3 65.8,88.2 C65.4,89.0 69.7,97.1 69.1,97.6 C68.4,98.2 62.4,90.9 61.7,91.4 C60.9,91.8 65.1,99.5 64.6,100.3 C64.1,101.2 59.8,96.4 58.7,96.4 C57.6,96.3 57.6,99.2 58.0,100.0 C58.4,100.8 61.7,99.9 61.4,101.1 C61.2,102.2 56.1,106.0 56.5,106.8 C56.9,107.6 63.5,104.9 63.9,105.7 C64.2,106.5 57.8,111.0 58.5,111.7 C59.2,112.3 67.4,108.7 68.0,109.3 C68.6,110.0 61.9,114.7 61.9,115.7 C61.9,116.7 67.3,114.7 68.0,115.3 C68.7,115.9 65.1,118.9 66.0,119.4 C66.8,119.9 72.7,117.6 73.2,118.4 C73.6,119.1 68.7,122.9 68.5,124.0 C68.3,125.1 71.3,124.3 72.0,125.0 C72.7,125.7 73.5,127.3 73.0,128.1 C72.6,128.9 69.6,128.9 69.4,129.8 C69.1,130.6 72.1,132.5 71.7,133.3 C71.2,134.1 66.6,133.6 66.7,134.6 C66.8,135.5 72.5,138.2 72.1,139.0 C71.7,139.8 64.9,138.7 64.3,139.4 C63.8,140.2 69.4,142.8 68.8,143.6 C68.3,144.4 61.8,143.3 61.1,144.0 C60.5,144.8 64.4,147.3 65.0,148.0"/>

  <!-- Drift: teal → 82 -->
  <path style="fill:none; stroke:#5bbcd6; stroke-width:0.8px; opacity:0.85; stroke-linecap:round" d="M90.6,55.0 C90.9,55.4 92.7,56.7 92.6,57.6 C92.5,58.4 89.6,59.3 89.9,60.1 C90.2,61.0 94.8,61.8 94.5,62.7 C94.3,63.5 88.5,64.4 88.5,65.2 C88.6,66.1 95.0,66.9 94.9,67.8 C94.7,68.6 87.7,69.5 87.4,70.3 C87.0,71.2 92.6,72.0 92.6,72.9 C92.5,73.7 87.4,74.6 87.1,75.4 C86.8,76.3 90.2,77.1 90.6,78.0 C91.0,78.9 90.4,80.9 89.5,81.1 C88.6,81.4 85.9,78.8 85.3,79.5 C84.7,80.1 86.8,84.9 86.0,85.2 C85.1,85.4 80.7,80.5 80.0,81.1 C79.4,81.7 82.5,87.8 82.0,88.6 C81.5,89.5 77.8,85.5 77.1,86.1 C76.4,86.6 78.9,91.9 77.9,91.9 C76.9,92.0 71.8,86.1 71.1,86.7 C70.5,87.3 74.8,95.2 74.0,95.6 C73.1,95.9 67.2,88.6 66.1,88.6 C65.1,88.7 68.4,95.1 67.9,95.9 C67.3,96.6 63.5,92.5 62.9,93.2 C62.2,93.8 64.9,99.3 64.0,99.5 C63.2,99.8 58.7,94.8 57.7,94.9 C56.7,95.0 57.3,99.0 58.0,100.0 C58.7,101.0 61.7,99.9 61.7,100.9 C61.8,101.9 57.9,105.0 58.2,105.8 C58.5,106.7 63.0,105.2 63.5,105.9 C64.0,106.6 60.3,109.7 61.2,110.1 C62.2,110.6 69.2,107.6 69.4,108.6 C69.5,109.5 61.8,114.8 61.9,115.7 C62.0,116.6 69.7,113.4 70.0,114.2 C70.2,115.0 63.3,119.9 63.7,120.7 C64.1,121.5 71.6,118.2 72.3,118.8 C73.0,119.5 67.8,123.3 67.8,124.4 C67.7,125.4 70.7,124.7 72.0,125.0 C73.3,125.3 75.4,125.4 75.5,126.2 C75.6,127.1 72.5,129.3 72.8,130.1 C73.1,130.9 77.1,130.1 77.3,130.9 C77.4,131.8 73.4,134.4 73.7,135.2 C74.0,136.0 78.4,135.0 78.8,135.7 C79.2,136.5 75.4,139.0 76.1,139.6 C76.8,140.2 82.8,138.5 83.1,139.3 C83.3,140.1 77.2,143.7 77.6,144.4 C78.1,145.1 85.0,143.0 85.7,143.6 C86.5,144.2 82.6,147.3 82.0,148.0"/>

  <!-- Drift: teal → 100 -->
  <path style="fill:none; stroke:#5bbcd6; stroke-width:0.8px; opacity:0.85; stroke-linecap:round" d="M90.6,55.0 C90.8,55.4 92.4,56.7 91.9,57.6 C91.5,58.4 87.6,59.3 87.7,60.1 C87.8,61.0 92.5,61.8 92.5,62.7 C92.5,63.5 87.4,64.4 87.7,65.2 C88.1,66.1 94.8,66.9 94.8,67.8 C94.8,68.6 87.7,69.5 87.6,70.3 C87.5,71.2 94.5,72.0 94.1,72.9 C93.7,73.7 85.8,74.6 85.2,75.4 C84.6,76.3 88.9,78.1 90.6,78.0 C92.3,77.9 95.1,74.5 95.7,75.1 C96.3,75.8 93.9,80.9 94.3,81.9 C94.7,82.8 97.7,79.9 98.0,81.0 C98.4,82.0 95.4,87.9 96.3,88.1 C97.3,88.3 102.9,81.5 103.6,82.1 C104.3,82.6 99.9,90.6 100.5,91.3 C101.1,92.0 106.1,86.1 107.0,86.4 C107.8,86.7 104.8,92.7 105.6,93.0 C106.4,93.4 110.8,88.5 111.7,88.7 C112.6,89.0 110.1,94.2 111.0,94.5 C111.8,94.8 116.3,89.7 116.8,90.5 C117.3,91.3 113.5,98.5 114.1,99.2 C114.7,99.9 119.4,94.4 120.5,94.4 C121.5,94.5 119.9,98.3 120.4,99.3 C120.8,100.2 122.2,99.2 123.0,100.0 C123.8,100.8 126.1,103.9 125.1,104.3 C124.1,104.8 117.4,101.8 116.9,102.5 C116.4,103.3 122.7,108.1 122.3,108.8 C121.8,109.6 114.5,106.3 114.2,107.1 C113.8,107.9 120.6,113.0 120.1,113.7 C119.7,114.5 112.1,111.0 111.6,111.7 C111.0,112.4 117.2,117.1 116.9,118.0 C116.7,118.9 110.6,116.3 110.2,117.0 C109.7,117.8 115.3,122.2 114.3,122.6 C113.4,123.1 105.4,119.3 104.4,119.7 C103.3,120.1 106.9,123.5 108.0,125.0 C109.1,126.5 111.9,128.3 111.0,128.9 C110.1,129.6 103.2,128.1 102.6,128.9 C102.1,129.6 107.8,132.6 107.6,133.5 C107.4,134.3 101.5,133.2 101.2,134.1 C100.9,134.9 106.4,137.8 106.0,138.6 C105.6,139.4 98.8,138.0 98.9,139.0 C99.0,140.0 106.4,143.6 106.4,144.5 C106.3,145.4 99.6,144.1 98.6,144.6 C97.5,145.2 99.8,147.4 100.0,148.0"/>

  <!-- Drift: slate → 118 -->
  <path style="fill:none; stroke:#7799bb; stroke-width:0.7px; opacity:0.7; stroke-linecap:round" d="M90.6,55.0 C91.4,55.4 96.3,56.7 95.6,57.6 C94.9,58.4 86.9,59.3 86.4,60.1 C86.0,61.0 92.4,61.8 92.6,62.7 C92.8,63.5 87.3,64.4 87.7,65.2 C88.2,66.1 95.5,66.9 95.4,67.8 C95.2,68.6 87.1,69.5 86.6,70.3 C86.2,71.2 92.6,72.0 92.7,72.9 C92.7,73.7 87.1,74.6 86.7,75.4 C86.4,76.3 89.4,77.6 90.6,78.0 C91.8,78.4 93.7,76.5 94.1,77.6 C94.4,78.6 91.8,84.0 92.5,84.5 C93.2,85.0 97.5,80.3 98.3,80.6 C99.1,81.0 96.4,86.5 97.4,86.6 C98.4,86.7 103.6,80.6 104.1,81.3 C104.7,82.0 100.5,89.8 100.9,90.7 C101.3,91.7 105.9,86.4 106.7,86.9 C107.4,87.3 104.5,93.2 105.2,93.6 C106.0,94.0 110.1,89.5 111.2,89.5 C112.3,89.5 110.9,93.1 111.7,93.4 C112.6,93.7 115.8,90.5 116.2,91.4 C116.7,92.2 113.8,98.1 114.5,98.5 C115.3,99.0 120.1,93.4 120.7,94.1 C121.3,94.7 117.8,101.4 118.2,102.4 C118.6,103.4 121.9,99.7 123.0,100.0 C124.1,100.3 125.4,103.5 124.6,104.1 C123.8,104.6 118.6,102.5 118.3,103.4 C118.0,104.2 123.6,108.6 122.8,109.2 C122.1,109.8 114.5,106.2 113.9,106.9 C113.3,107.6 119.4,112.3 119.3,113.2 C119.2,114.2 114.0,112.1 113.5,112.8 C112.9,113.5 116.3,116.6 115.8,117.3 C115.2,118.0 110.5,116.2 109.9,116.9 C109.3,117.6 112.8,120.7 112.2,121.4 C111.7,122.1 107.2,120.4 106.5,121.0 C105.8,121.6 106.9,124.3 108.0,125.0 C109.1,125.7 113.4,124.5 113.2,125.5 C113.0,126.5 106.9,130.0 107.0,130.9 C107.1,131.8 113.2,130.0 113.7,130.7 C114.3,131.4 109.6,134.3 110.2,135.0 C110.7,135.7 117.0,133.8 117.1,134.7 C117.2,135.6 110.3,139.5 110.5,140.3 C110.7,141.1 117.9,138.9 118.3,139.7 C118.8,140.4 113.0,143.8 113.2,144.6 C113.4,145.5 118.5,144.1 119.3,144.7 C120.1,145.3 118.2,147.5 118.0,148.0"/>

  <!-- Drift: green → 133 -->
  <path style="fill:none; stroke:#8cc082; stroke-width:0.8px; opacity:0.8; stroke-linecap:round" d="M90.6,55.0 C90.8,55.4 92.4,56.7 91.9,57.6 C91.4,58.4 87.0,59.3 87.4,60.1 C87.9,61.0 95.0,61.8 94.7,62.7 C94.5,63.5 86.0,64.4 85.9,65.2 C85.9,66.1 93.7,66.9 94.2,67.8 C94.7,68.6 88.7,69.5 88.8,70.3 C88.9,71.2 95.1,72.0 94.8,72.9 C94.4,73.7 87.6,74.6 86.9,75.4 C86.2,76.3 89.2,77.9 90.6,78.0 C92.0,78.1 94.6,75.2 95.0,76.1 C95.4,77.1 92.4,83.2 93.1,83.7 C93.8,84.2 98.5,78.7 99.3,79.2 C100.0,79.6 96.7,86.0 97.4,86.5 C98.1,87.1 102.6,82.0 103.5,82.3 C104.3,82.6 101.7,88.0 102.4,88.5 C103.1,89.1 107.0,84.8 107.5,85.6 C108.0,86.5 104.4,93.3 105.3,93.6 C106.1,93.9 111.6,87.4 112.4,87.7 C113.3,88.0 109.6,95.0 110.3,95.5 C111.1,95.9 116.2,89.9 116.9,90.3 C117.7,90.8 113.9,97.9 114.7,98.3 C115.5,98.7 120.8,92.4 121.6,92.7 C122.5,93.0 119.6,98.9 119.8,100.1 C120.0,101.3 121.6,100.2 123.0,100.0 C124.4,99.8 128.3,98.0 128.3,99.2 C128.3,100.3 122.6,106.0 122.7,107.0 C122.9,108.1 128.3,104.8 129.1,105.4 C129.8,106.0 126.1,110.1 127.1,110.4 C128.2,110.7 135.0,106.3 135.3,107.2 C135.6,108.1 129.0,114.5 129.0,115.7 C129.0,116.8 134.7,113.4 135.3,114.1 C135.9,114.7 131.9,119.1 132.7,119.6 C133.6,120.0 139.9,116.1 140.4,116.8 C140.9,117.6 135.2,123.3 135.9,123.9 C136.5,124.5 143.3,120.2 144.5,120.4 C145.6,120.6 143.7,124.0 143.0,125.0 C142.3,126.0 139.9,125.5 140.1,126.5 C140.4,127.5 145.0,130.4 144.5,131.1 C143.9,131.8 137.1,129.7 136.7,130.5 C136.3,131.2 142.2,134.7 141.9,135.4 C141.6,136.2 135.2,134.4 134.9,135.2 C134.6,135.9 140.5,139.4 140.3,140.2 C140.0,141.0 134.0,139.3 133.5,140.0 C133.0,140.7 137.6,143.6 137.3,144.4 C136.9,145.2 132.3,144.0 131.6,144.6 C130.9,145.3 132.8,147.4 133.0,148.0"/>

  <!-- Drift: purple → 153 -->
  <path style="fill:none; stroke:#b07aa1; stroke-width:0.75px; opacity:0.75; stroke-linecap:round" d="M90.6,55.0 C91.0,55.4 93.7,56.7 93.1,57.6 C92.4,58.4 86.2,59.3 86.7,60.1 C87.2,61.0 95.7,61.8 95.9,62.7 C96.1,63.5 88.4,64.4 87.9,65.2 C87.4,66.1 93.0,66.9 92.9,67.8 C92.8,68.6 87.5,69.5 87.3,70.3 C87.2,71.2 91.4,72.0 91.8,72.9 C92.2,73.7 89.9,74.6 89.7,75.4 C89.5,76.3 89.6,78.1 90.6,78.0 C91.6,77.9 95.3,74.2 95.8,75.0 C96.3,75.9 93.1,82.1 93.5,83.1 C93.8,84.1 97.4,80.4 98.0,81.1 C98.6,81.8 96.1,86.9 97.0,87.1 C97.9,87.4 102.6,82.0 103.3,82.5 C104.0,83.0 100.6,89.6 101.2,90.2 C101.9,90.8 106.4,85.7 107.1,86.3 C107.7,86.9 104.3,93.4 105.2,93.7 C106.1,93.9 111.5,87.5 112.4,87.7 C113.3,88.0 109.7,94.7 110.4,95.3 C111.1,95.8 116.1,90.1 116.6,90.9 C117.1,91.7 112.8,99.5 113.4,100.2 C114.0,100.9 119.0,95.1 120.0,95.1 C121.1,95.0 119.3,99.3 119.8,100.1 C120.3,100.9 121.8,100.0 123.0,100.0 C124.2,100.0 126.5,99.4 126.8,100.4 C127.1,101.3 124.1,104.8 124.7,105.5 C125.4,106.1 130.4,103.2 130.8,104.0 C131.2,104.9 126.2,110.0 126.9,110.6 C127.5,111.2 134.4,106.9 134.8,107.6 C135.3,108.4 129.3,114.3 129.7,115.1 C130.1,116.0 136.5,112.0 137.2,112.6 C137.9,113.1 133.4,117.9 133.8,118.7 C134.2,119.5 139.1,116.7 139.6,117.5 C140.0,118.3 135.7,122.8 136.5,123.4 C137.2,123.9 143.0,120.5 144.0,120.7 C145.1,121.0 143.5,123.7 143.0,125.0 C142.5,126.3 139.9,128.2 140.9,128.7 C141.9,129.1 148.5,127.2 148.9,127.9 C149.4,128.6 143.6,132.1 143.6,133.0 C143.6,133.9 148.9,132.5 149.0,133.3 C149.1,134.2 143.7,137.4 144.3,138.1 C144.8,138.8 151.6,136.8 152.3,137.4 C153.0,138.0 148.3,140.9 148.7,141.7 C149.0,142.4 154.3,141.1 154.7,141.8 C155.0,142.6 151.1,145.2 150.8,146.2 C150.5,147.2 152.6,147.7 153.0,148.0"/>

  <!-- Drift: gold ghost → 153 -->
  <path style="fill:none; stroke:#e8c547; stroke-width:0.5px; opacity:0.3; stroke-linecap:round; stroke-dasharray:2 3" d="M90.6,55.0 C91.0,55.4 93.5,56.7 92.9,57.6 C92.2,58.4 86.8,59.3 86.8,60.1 C86.8,61.0 92.5,61.8 92.7,62.7 C92.8,63.5 87.6,64.4 87.7,65.2 C87.9,66.1 93.9,66.9 93.7,67.8 C93.5,68.6 86.4,69.5 86.4,70.3 C86.3,71.2 93.5,72.0 93.6,72.9 C93.7,73.7 87.4,74.6 86.9,75.4 C86.4,76.3 89.4,77.7 90.6,78.0 C91.8,78.3 93.6,76.6 94.1,77.5 C94.5,78.4 92.6,82.8 93.3,83.4 C94.0,83.9 97.6,80.1 98.2,80.7 C98.9,81.3 96.3,86.6 97.0,87.1 C97.8,87.6 101.8,83.3 102.6,83.6 C103.5,83.8 101.2,88.7 102.2,88.9 C103.1,89.0 107.7,83.8 108.3,84.4 C109.0,85.0 105.6,91.6 106.0,92.5 C106.5,93.4 110.2,89.5 111.0,89.7 C111.9,90.0 110.4,93.8 111.2,94.1 C112.0,94.5 115.3,91.2 115.9,91.9 C116.4,92.7 113.5,98.5 114.4,98.7 C115.3,98.9 120.4,93.0 121.3,93.2 C122.2,93.5 119.4,99.1 119.7,100.2 C120.0,101.3 122.0,99.8 123.0,100.0 C124.0,100.2 125.7,100.1 125.8,101.2 C125.8,102.3 122.6,106.0 123.4,106.5 C124.1,107.1 129.7,103.7 130.3,104.4 C130.9,105.1 126.1,110.1 126.7,110.7 C127.3,111.3 133.3,107.7 134.1,108.2 C134.8,108.8 130.6,113.2 131.3,113.8 C132.0,114.4 137.7,111.0 138.1,111.8 C138.5,112.7 133.2,118.1 133.7,118.8 C134.2,119.5 140.3,115.8 141.0,116.3 C141.8,116.9 137.5,121.4 138.0,122.1 C138.6,122.9 143.4,120.2 144.2,120.6 C145.0,121.1 143.1,123.8 143.0,125.0 C142.9,126.2 142.7,127.0 143.3,127.6 C144.0,128.2 147.2,127.7 147.0,128.7 C146.7,129.8 141.1,133.1 142.0,133.6 C142.8,134.2 151.7,131.2 152.1,132.0 C152.5,132.7 144.3,137.2 144.3,138.1 C144.2,139.0 151.7,136.7 151.9,137.5 C152.1,138.3 145.2,142.3 145.5,143.0 C145.9,143.8 153.4,141.4 154.0,142.1 C154.6,142.8 149.1,146.0 149.0,147.0 C148.8,148.0 152.3,147.8 153.0,148.0"/>

  <!-- Drift: teal ghost → 82 -->
  <path style="fill:none; stroke:#5bbcd6; stroke-width:0.5px; opacity:0.3; stroke-linecap:round; stroke-dasharray:2 3" d="M90.6,55.0 C91.2,55.4 94.2,56.7 94.0,57.6 C93.8,58.4 89.6,59.3 89.3,60.1 C89.0,61.0 92.5,61.8 92.3,62.7 C92.1,63.5 87.8,64.4 87.8,65.2 C87.9,66.1 93.0,66.9 92.8,67.8 C92.6,68.6 86.8,69.5 86.9,70.3 C86.9,71.2 93.2,72.0 93.0,72.9 C92.8,73.7 86.2,74.6 85.8,75.4 C85.4,76.3 89.8,76.9 90.6,78.0 C91.4,79.1 91.5,82.4 90.3,82.3 C89.2,82.2 84.4,76.7 83.8,77.3 C83.1,77.9 87.1,85.3 86.4,85.9 C85.8,86.5 80.7,80.5 79.8,80.7 C78.8,80.9 81.7,86.6 80.8,86.9 C79.9,87.1 74.9,81.3 74.4,82.1 C73.9,82.9 78.3,91.0 77.6,91.6 C77.0,92.2 71.5,85.6 70.6,85.8 C69.7,86.1 72.8,92.3 72.3,93.1 C71.8,93.9 68.2,90.1 67.6,90.9 C67.1,91.6 69.9,97.3 68.9,97.4 C67.9,97.5 62.7,91.4 61.9,91.7 C61.0,92.0 64.4,98.5 63.8,99.2 C63.1,99.8 59.1,95.3 58.1,95.5 C57.2,95.6 57.2,99.2 58.0,100.0 C58.8,100.8 63.3,99.0 63.2,100.1 C63.1,101.1 57.2,105.4 57.5,106.3 C57.8,107.1 64.3,104.4 64.9,105.1 C65.5,105.8 60.4,109.6 61.0,110.3 C61.5,111.0 68.1,108.3 68.2,109.2 C68.3,110.2 61.6,114.9 61.5,115.9 C61.5,116.9 67.4,114.6 67.9,115.3 C68.4,116.0 63.8,119.6 64.6,120.2 C65.3,120.8 71.6,118.2 72.3,118.9 C73.0,119.5 68.7,122.9 68.6,123.9 C68.6,124.9 70.8,124.6 72.0,125.0 C73.2,125.4 75.9,125.1 75.6,126.2 C75.3,127.2 69.9,130.5 70.2,131.2 C70.6,132.0 77.2,130.0 77.8,130.7 C78.4,131.3 73.4,134.4 73.8,135.2 C74.1,135.9 79.8,134.4 80.0,135.2 C80.1,136.1 74.5,139.4 74.7,140.2 C74.9,141.1 80.5,139.5 81.2,140.2 C81.8,140.8 78.0,143.3 78.5,144.1 C78.9,144.8 83.3,143.8 83.8,144.5 C84.4,145.1 82.3,147.4 82.0,148.0"/>

  <!-- Drift: green ghost → 28 -->
  <path style="fill:none; stroke:#8cc082; stroke-width:0.5px; opacity:0.25; stroke-linecap:round; stroke-dasharray:2 3" d="M90.6,55.0 C91.0,55.4 93.4,56.7 92.8,57.6 C92.2,58.4 87.2,59.3 86.9,60.1 C86.7,61.0 91.0,61.8 91.3,62.7 C91.5,63.5 88.4,64.4 88.6,65.2 C88.7,66.1 92.5,66.9 92.2,67.8 C91.9,68.6 86.4,69.5 86.8,70.3 C87.2,71.2 93.9,72.0 94.4,72.9 C94.9,73.7 90.4,74.6 89.7,75.4 C89.1,76.3 90.4,76.7 90.6,78.0 C90.8,79.3 91.9,83.1 90.9,83.2 C89.9,83.2 85.5,78.3 84.6,78.5 C83.7,78.7 86.3,84.1 85.4,84.4 C84.6,84.7 80.4,80.1 79.7,80.6 C78.9,81.0 81.4,86.2 80.8,86.9 C80.3,87.7 77.0,84.4 76.4,85.1 C75.8,85.7 77.9,90.4 77.1,90.9 C76.4,91.3 72.4,86.9 71.7,87.6 C71.1,88.2 74.2,94.3 73.5,94.8 C72.7,95.2 68.1,89.9 67.3,90.3 C66.5,90.7 69.6,96.9 68.7,97.2 C67.9,97.5 62.9,91.7 62.1,92.1 C61.4,92.5 64.6,98.9 64.1,99.7 C63.6,100.5 60.1,96.9 59.1,97.0 C58.1,97.0 58.1,98.9 58.0,100.0 C57.9,101.1 59.6,103.5 58.4,103.7 C57.2,103.9 51.6,100.6 50.9,101.2 C50.2,101.8 54.5,106.3 54.1,107.2 C53.8,108.0 49.2,105.5 48.9,106.4 C48.7,107.4 53.3,112.2 52.8,112.9 C52.4,113.7 47.0,110.6 46.3,111.1 C45.5,111.6 49.0,115.6 48.2,116.1 C47.4,116.6 42.1,113.5 41.4,114.1 C40.7,114.6 44.6,118.9 43.9,119.5 C43.3,120.1 38.0,117.0 37.6,117.8 C37.2,118.6 41.4,123.2 41.5,124.4 C41.6,125.6 39.4,124.8 38.0,125.0 C36.6,125.2 33.0,124.6 33.3,125.7 C33.5,126.7 39.8,130.3 39.6,131.2 C39.4,132.0 32.9,130.1 32.3,130.7 C31.7,131.4 36.5,134.4 35.9,135.0 C35.4,135.7 29.1,133.9 29.0,134.8 C28.9,135.6 35.8,139.6 35.3,140.2 C34.8,140.9 26.4,138.2 26.0,138.9 C25.7,139.7 32.8,143.7 33.1,144.7 C33.4,145.8 28.6,144.6 27.7,145.1 C26.9,145.7 28.0,147.5 28.0,148.0"/>
  <circle class="st29" cx="28" cy="148" r="4"/>
  <circle class="st3" cx="65" cy="148" r="4"/>
  <circle class="st34" cx="100" cy="148" r="4"/>
  <circle class="st3" cx="82" cy="148" r="4"/>
  <circle class="st7" cx="133" cy="148" r="4"/>
  <circle class="st29" cx="48.43" cy="148" r="4"/>
  <circle class="st8" cx="90.6" cy="55" r="2.5"/>
  <g class="st5">
    <g class="st5">
      <text class="st17" transform="translate(47.68 173)"><tspan x="0" y="0">MitoDrift</tspan></text>
    </g>
  </g>
  <circle class="st34" cx="118.5" cy="148" r="4"/>
  <circle class="st32" cx="153" cy="148" r="4"/>
</svg>