<?xml version="1.0" encoding="UTF-8"?>
<svg id="Layer_1" xmlns="http://www.w3.org/2000/svg" xmlns:xlink="http://www.w3.org/1999/xlink" version="1.1" viewBox="0 0 181.2 209.3">
  <!-- Generator: Adobe Illustrator 29.7.1, SVG Export Plug-In . SVG Version: 2.1.1 Build 8)  -->
  <defs>
    <style>
      .st0 {
        fill: url(#linear-gradient);
        stroke: #3a5a9a;
        stroke-linejoin: round;
        stroke-width: 3.5px;
      }

      .st1 {
        fill: #568;
      }

      .st1, .st2, .st3, .st4, .st5, .st6, .st7, .st8, .st9, .st10, .st11, .st12, .st13, .st14, .st15, .st16, .st17, .st18, .st19, .st20, .st21, .st22, .st23, .st24, .st25, .st26, .st27, .st28, .st29, .st30, .st31, .st32, .st33, .st34, .st35, .st36, .st37, .st38, .st39, .st40 {
        isolation: isolate;
      }

      .st41 {
        stroke-width: 1.8px;
      }

      .st41, .st42, .st43, .st3, .st6, .st7, .st8, .st9, .st10, .st11, .st12, .st13, .st44, .st15, .st16, .st17, .st18, .st19, .st20, .st21, .st22, .st23, .st24, .st25, .st26, .st27, .st29, .st30, .st32, .st33, .st45, .st34, .st36, .st37, .st38, .st39, .st40 {
        fill: none;
      }

      .st41, .st42, .st3, .st12, .st13, .st44, .st15, .st16, .st17, .st18, .st19, .st20, .st21, .st22, .st23, .st24, .st25, .st26, .st27, .st29, .st30, .st32, .st33, .st45, .st36, .st37, .st38, .st39, .st40 {
        stroke-linecap: round;
      }

      .st41, .st42, .st44, .st17, .st45 {
        stroke: #568;
      }

      .st42 {
        stroke-width: 1.4px;
      }

      .st43 {
        stroke: #000;
      }

      .st43, .st13, .st15, .st16, .st17, .st38 {
        stroke-width: .8px;
      }

      .st3 {
        stroke: #b07aa1;
        stroke-width: .75px;
      }

      .st3, .st6, .st7, .st8, .st9, .st10, .st11, .st34 {
        opacity: .75;
      }

      .st4 {
        fill: #8cc082;
      }

      .st5 {
        fill: #79b;
      }

      .st5, .st37, .st40 {
        opacity: .7;
      }

      .st6 {
        stroke-width: .74px;
      }

      .st6, .st7, .st8, .st9, .st10, .st11, .st18, .st19, .st20, .st21, .st22, .st23, .st24, .st25, .st26, .st27, .st29, .st30, .st32, .st33, .st34 {
        stroke: #9bd;
      }

      .st6, .st26, .st30 {
        stroke-miterlimit: 2.97;
      }

      .st7, .st18, .st23 {
        stroke-miterlimit: 3.78;
      }

      .st7, .st33 {
        stroke-width: .95px;
      }

      .st8, .st19 {
        stroke-width: .68px;
      }

      .st8, .st20, .st32 {
        stroke-miterlimit: 2.7;
      }

      .st9 {
        stroke-width: .88px;
      }

      .st9, .st21, .st27 {
        stroke-miterlimit: 3.51;
      }

      .st10 {
        stroke-width: .54px;
      }

      .st10, .st22, .st25 {
        stroke-miterlimit: 2.16;
      }

      .st11, .st24, .st29 {
        stroke-miterlimit: 2.43;
      }

      .st11, .st27 {
        stroke-width: .61px;
      }

      .st12 {
        opacity: .25;
      }

      .st12, .st16 {
        stroke: #8cc082;
      }

      .st12, .st36, .st39 {
        stroke-dasharray: 2 3;
        stroke-width: .5px;
      }

      .st13, .st15, .st39 {
        stroke: #e8c547;
      }

      .st13, .st17, .st38 {
        opacity: .85;
      }

      .st44 {
        stroke-width: 2.2px;
      }

      .st14 {
        fill: #c8d6e8;
        font-family: HelveticaNeue-Medium, 'Helvetica Neue';
        font-size: 18px;
        font-weight: 500;
        letter-spacing: .08em;
      }

      .st15, .st16 {
        opacity: .8;
      }

      .st18, .st19, .st20, .st21, .st22, .st23, .st24, .st25, .st26, .st27, .st29, .st30, .st32, .st33 {
        opacity: .65;
      }

      .st18, .st32 {
        stroke-width: .47px;
      }

      .st19, .st33, .st34 {
        stroke-miterlimit: 5.4;
      }

      .st20 {
        stroke-width: .34px;
      }

      .st21 {
        stroke-width: .43px;
      }

      .st22 {
        stroke-width: .32px;
      }

      .st23 {
        stroke-width: .66px;
      }

      .st24 {
        stroke-width: .36px;
      }

      .st25, .st26 {
        stroke-width: .38px;
      }

      .st28 {
        fill: #e8c547;
      }

      .st29 {
        stroke-width: .42px;
      }

      .st30 {
        stroke-width: .53px;
      }

      .st31 {
        fill: #e07653;
      }

      .st45 {
        stroke-width: 2.5px;
      }

      .st34 {
        stroke-width: 1.35px;
      }

      .st35 {
        fill: #5bbcd6;
      }

      .st36, .st38, .st40 {
        stroke: #5bbcd6;
      }

      .st36, .st39 {
        opacity: .3;
      }

      .st37 {
        stroke: #79b;
      }

      .st37, .st40 {
        stroke-width: .7px;
      }
    </style>
    <linearGradient id="linear-gradient" x1="-850.72" y1="5.6" x2="-850.72" y2="6.6" gradientTransform="translate(152540.2 -1159) scale(179.2 207.3)" gradientUnits="userSpaceOnUse">
      <stop offset="0" stop-color="#1a1f3a"/>
      <stop offset="1" stop-color="#0d1225"/>
    </linearGradient>
  </defs>
  <polygon class="st0" points="90.6 1 180.2 53.3 180.2 156 90.6 208.3 1 156 1 53.3 90.6 1"/>
  <polygon class="st43" points="90.6 8 173.5 56.3 173.5 152.7 90.6 201 7.7 152.7 7.7 56.3 90.6 8"/>
  <g>
    <g>
      <path class="st34" d="M83.57,35.12l11.96-2.11c3.31-.58,6.45,1.62,7.03,4.93h0c.58,3.31-1.62,6.45-4.93,7.03l-11.96,2.11c-3.31.58-6.45-1.62-7.03-4.93h0c-.58-3.31,1.62-6.45,4.93-7.03Z"/>
      <path class="st19" d="M84.46,36.34l10.64-1.88c2.57-.46,5.02,1.27,5.47,3.83h0c.46,2.56-1.27,5.02-3.83,5.47l-10.64,1.88c-2.57.46-5.02-1.27-5.47-3.83h0c-.46-2.56,1.27-5.02,3.83-5.47Z"/>
      <path class="st33" d="M82.58,37.35c1.26,3.21,2.15,4.41,1.4,7.98"/>
      <path class="st33" d="M86.52,36.38c1.42,4.13,2.31,5.35,1.5,8.51"/>
      <path class="st33" d="M91.18,35.55c1.42,4.13,2.31,5.35,1.5,8.51"/>
      <path class="st33" d="M95.22,35.12c1.26,3.21,2.15,4.41,1.4,7.98"/>
    </g>
    <g>
      <path class="st7" d="M62.95,29.2l7.99,2.9c2.2.81,3.35,3.24,2.54,5.45h0c-.81,2.2-3.24,3.35-5.45,2.54l-7.99-2.9c-2.2-.81-3.35-3.24-2.54-5.45h0c.81-2.2,3.24-3.35,5.45-2.54Z"/>
      <path class="st18" d="M63.07,30.25l7.1,2.59c1.71.62,2.61,2.52,1.97,4.24h0c-.62,1.71-2.52,2.61-4.24,1.97l-7.1-2.59c-1.71-.62-2.61-2.52-1.97-4.24h0c.62-1.71,2.52-2.61,4.24-1.97Z"/>
      <path class="st23" d="M62.02,30.37c-.53,2.82-.41,3.87-1.94,5.33"/>
      <path class="st23" d="M65.64,31.49c-.76,3.44-.47,4.05-2.07,5.68"/>
      <path class="st23" d="M69.12,32.95c-.53,2.82-.24,3.43-1.94,5.33"/>
    </g>
    <g>
      <path class="st9" d="M112.89,35.45l7.16-3.33c1.97-.92,4.32-.07,5.25,1.9h0c.92,1.97.07,4.32-1.9,5.25l-7.16,3.33c-1.97.92-4.32.07-5.25-1.9h0c-.92-1.97-.07-4.32,1.9-5.25Z"/>
      <path class="st21" d="M113.66,36.05l6.36-2.97c1.54-.72,3.36-.05,4.08,1.49h0c.72,1.54.05,3.36-1.48,4.08l-6.36,2.97c-1.54.72-3.36.05-4.08-1.49h0c-.72-1.54-.05-3.36,1.48-4.08Z"/>
      <path class="st27" d="M113.44,36.63c1.51,2.2,2.09,2.42,2.23,4.77"/>
      <path class="st27" d="M116.95,34.8c1.77,2.75,2.35,2.97,2.38,5.09"/>
      <path class="st27" d="M120.21,33.48c1.51,2.2,2.09,2.42,2.23,4.77"/>
    </g>
    <g>
      <path class="st11" d="M48.62,41.64l4.48,3.13c1.24.86,1.54,2.57.68,3.81h0c-.86,1.24-2.57,1.54-3.81.68l-4.48-3.13c-1.24-.86-1.54-2.57-.68-3.81h0c.86-1.24,2.57-1.54,3.81-.68Z"/>
      <path class="st24" d="M48.52,42.32l3.98,2.78c.96.68,1.2,2,.53,2.96h0c-.68.96-2,1.2-2.96.53l-3.98-2.78c-.96-.68-1.2-2-.53-2.96h0c.68-.96,2-1.2,2.96-.53Z"/>
      <path class="st29" d="M48.59,42.74c-.8,1.66-.72,2.09-2.09,2.98"/>
      <path class="st29" d="M51.09,44.48c-.8,1.66-.72,2.09-2.09,2.98"/>
    </g>
    <g>
      <path class="st10" d="M83.11,23.3l3.73-3.12c1.03-.86,2.57-.73,3.43.3h0c.86,1.03.73,2.57-.3,3.43l-3.73,3.12c-1.03.86-2.57.73-3.43-.3h0c-.86-1.03-.73-2.56.3-3.43Z"/>
      <path class="st22" d="M83.66,23.54l3.31-2.78c.8-.68,2-.57,2.66.23h0c.68.8.57,2-.23,2.66l-3.31,2.78c-.8.68-2,.57-2.66-.23h0c-.68-.8-.57-2,.23-2.66Z"/>
      <path class="st25" d="M84.24,23.4c1.24,1.07,1.63,1.11,2.08,2.48"/>
      <path class="st25" d="M86.31,21.66c1.24,1.07,1.63,1.11,2.08,2.48"/>
    </g>
    <g>
      <path class="st6" d="M70.55,45.88l6.66.58c1.84.16,3.2,1.78,3.04,3.62h0c-.16,1.84-1.78,3.2-3.62,3.04l-6.66-.58c-1.84-.16-3.2-1.78-3.04-3.62h0c.16-1.84,1.78-3.2,3.62-3.04Z"/>
      <path class="st26" d="M70.86,46.65l5.91.51c1.43.12,2.48,1.39,2.36,2.82h0c-.12,1.43-1.39,2.48-2.82,2.36l-5.91-.51c-1.43-.12-2.48-1.39-2.36-2.82h0c.12-1.43,1.39-2.48,2.82-2.36Z"/>
      <path class="st30" d="M70.82,47.02c.18,2.25.51,2.66-.39,4.44"/>
      <path class="st30" d="M74.16,47.31c.18,2.25.51,2.66-.39,4.44"/>
      <path class="st30" d="M76.75,47.54c.18,2.25.51,2.66-.39,4.44"/>
    </g>
    <g>
      <path class="st8" d="M103.61,27.1l5.87-1.57c1.62-.43,3.28.53,3.73,2.15h0c.43,1.62-.53,3.28-2.15,3.73l-5.87,1.57c-1.62.43-3.28-.53-3.73-2.15h0c-.43-1.62.53-3.28,2.15-3.73Z"/>
      <path class="st20" d="M104.13,27.67l5.21-1.4c1.26-.34,2.55.4,2.89,1.67h0c.34,1.26-.41,2.55-1.67,2.89l-5.21,1.4c-1.26.34-2.55-.4-2.89-1.67h0c-.34-1.26.41-2.55,1.67-2.89Z"/>
      <path class="st32" d="M103.88,28.08c.85,1.86,1.27,2.11,1.05,3.91"/>
      <path class="st32" d="M107.46,27.12c.85,1.86,1.27,2.11,1.05,3.91"/>
    </g>
    <g>
      <path class="st11" d="M110.39,44.41l4.74,2.73c1.31.76,1.76,2.43,1,3.74h0c-.76,1.31-2.43,1.75-3.74,1l-4.74-2.73c-1.31-.76-1.76-2.43-1-3.74h0c.76-1.31,2.43-1.75,3.74-1Z"/>
      <path class="st24" d="M110.35,45.1l4.21,2.43c1.01.58,1.36,1.89.78,2.9h0c-.58,1.01-1.89,1.36-2.9.78l-4.21-2.43c-1.01-.58-1.36-1.89-.78-2.9h0c.58-1.01,1.89-1.36,2.9-.78Z"/>
      <path class="st29" d="M110.73,45.67c-.65,1.73-.54,2.15-1.82,3.16"/>
      <path class="st29" d="M113.62,47.33c-.65,1.73-.54,2.15-1.82,3.16"/>
    </g>
  </g>
  <line class="st45" x1="90.6" y1="55" x2="90.6" y2="78"/>
  <line class="st44" x1="90.6" y1="78" x2="58" y2="100"/>
  <line class="st44" x1="90.6" y1="78" x2="123" y2="100"/>
  <line class="st41" x1="58" y1="100" x2="38" y2="125"/>
  <line class="st41" x1="58" y1="100" x2="72" y2="125"/>
  <line class="st41" x1="123" y1="100" x2="108" y2="125"/>
  <line class="st41" x1="123" y1="100" x2="143" y2="125"/>
  <line class="st42" x1="38" y1="125" x2="28" y2="148"/>
  <line class="st42" x1="38" y1="125" x2="48" y2="148"/>
  <line class="st42" x1="72" y1="125" x2="65" y2="148"/>
  <line class="st42" x1="72" y1="125" x2="82" y2="148"/>
  <line class="st42" x1="108" y1="125" x2="100" y2="148"/>
  <line class="st42" x1="108" y1="125" x2="118" y2="148"/>
  <line class="st42" x1="143" y1="125" x2="133" y2="148"/>
  <line class="st42" x1="143" y1="125" x2="153" y2="148"/>
  <path class="st13" d="M90.6,55c.7.4,5.1,1.7,4.1,2.6-.9.8-9.6,1.7-9.8,2.5-.2.9,7.8,1.7,8.5,2.6.7.8-4.4,1.7-4.5,2.5-.1.9,4.1,1.7,3.8,2.6-.2.8-5.3,1.7-5.3,2.5.1.9,5.4,1.7,5.6,2.6.1.8-4.4,1.7-4.8,2.5-.3.9,2.1,1.5,2.4,2.6.3,1.1.4,3.7-.6,3.8-1,.1-4.7-3.9-5.4-3.3-.6.6,2.1,6.3,1.4,6.8s-4.6-3.8-5.6-3.6c-.9.2.9,4.4,0,4.7-.8.2-4.8-4.1-5.2-3.1-.4,1,3.5,8.2,2.9,8.9-.6.7-5.5-4.9-6.4-4.7-.9.2,1.4,5.2.8,5.8-.6.7-3.8-2.5-4.4-1.8-.7.6,1.4,5.3.7,5.7-.8.4-4.5-3.4-5.4-3.2-.9.1.4,3.6-.3,4.2-.6.6-2.7-.9-3.5-.6-.9.3-1.5,1.3-1.6,2.4s1.5,3.5.7,4c-.9.4-5.5-2.2-5.9-1.3-.4.8,4.3,5.7,3.6,6.3-.8.5-7.2-3.5-8-3-.8.5,3.7,5.2,3.2,6-.5.7-5.8-2.4-6.2-1.6-.4.8,3.9,5.4,3.7,6.4-.2,1-4.2-1.1-5-.6-.7.6,1.6,3.6.4,3.7-1.2.2-7.4-3.6-7.5-2.5-.1,1,6.6,7.5,6.7,8.8.2,1.2-3.9-1.1-5.7-1.2s-5.4-.5-5.1.5c.2,1,6.4,4.6,6.5,5.6.2,1-5.3-.5-5.6.3-.4.7,4.5,3.8,3.7,4.3-.8.6-8.5-1.9-8.6-1-.1.9,8.5,5.5,8,6.2-.5.7-10.4-2.7-11.1-2-.6.6,7.5,5,7.5,5.9-.1.9-6.9-1.1-7.8-.6s2.1,3.2,2.5,3.8"/>
  <path class="st15" d="M90.6,55c.6.4,4.3,1.7,3.9,2.6-.4.8-6.1,1.7-6.2,2.5-.2.9,5.5,1.7,5.2,2.6-.2.8-6.4,1.7-6.6,2.5-.2.9,5,1.7,5.3,2.6.2.8-4,1.7-3.8,2.5.2.9,5.4,1.7,5.1,2.6-.3.8-6.5,1.7-7,2.5-.5.9,3.5,1.5,4.1,2.6s.8,4.3-.3,4.3c-1,0-5.5-5-6-4.3-.6.7,3.1,7.7,2.5,8.5-.5.7-5-4.3-5.9-4.2-1,.2.9,4.5.2,5-.7.6-3.8-2.5-4.4-1.8-.6.7,1.8,5.8.9,6-.9.3-5.4-4.9-6.2-4.5-.8.4,2.1,6.3,1.4,6.7-.8.4-5.4-4.7-6.1-4.3-.8.4,2.1,6.3,1.4,6.8-.7.5-5.2-4.5-5.6-3.6-.5.8,3.5,8.3,2.8,8.9-.7.5-5.7-5.3-6.9-5.6-1.2-.2-.3,2.9-.4,4.1s.9,3-.3,3.2c-1.1.2-6.2-2.7-6.5-1.8s4.8,6.1,4.6,7.1-5.4-2-6-1.4c-.6.7,2.9,4.6,2.3,5.3-.5.7-5.2-1.9-5.7-1.2-.5.8,3.6,5.2,2.9,5.7-.8.6-7-3.3-7.5-2.5-.4.8,5.6,6.7,4.7,7.2-.8.4-8.8-4.8-9.7-4.4-.9.4,4.2,5.6,4.4,6.9.2,1.3-2.4.2-3.2.9s-2,2.7-1.5,3.4c.6.7,4.7-.2,4.7.7.1.9-5.1,4-4.6,4.7s7-1.2,7.5-.5c.4.7-5.1,4-4.8,4.8.3.8,5.8-.7,6.6-.1.8.6-2.2,2.8-1.9,3.5.3.8,3.8.2,3.7,1.2-.1.9-4.1,3.6-4.1,4.5s3.7.7,4.4.8"/>
  <path class="st37" d="M90.6,55c.1.4,1.2,1.7.7,2.6-.6.8-4.6,1.7-3.9,2.5.8.9,8.5,1.7,8.5,2.6,0,.8-7.9,1.7-8.4,2.5-.5.9,5.6,1.7,5.5,2.6-.2.8-6.4,1.7-6.3,2.5.1.9,6.8,1.7,6.9,2.6.2.8-5.3,1.7-5.8,2.5-.5.9,2.4,1.5,2.8,2.6s.7,4.1-.6,3.9c-1.2-.3-6.2-6.1-6.8-5.4-.5.7,3.9,8.8,3.3,9.5-.6.6-6.2-6-7-5.7-.8.4,2.8,7.3,2.1,7.8-.7.5-5.6-5.2-6.4-4.7-.7.4,2.8,7.1,2,7.6-.7.5-5.5-5-6.4-4.8-.9.2,1.9,5.9,1.1,6.2-.9.3-5.6-5.1-6.1-4.2-.4.8,3.9,8.9,3.3,9.4-.7.6-6.7-6.7-7.4-6.2-.8.4,3.4,8.1,2.9,8.9-.5.9-4.8-3.9-5.9-3.9-1.1-.1-1.1,2.8-.7,3.6s3.7-.1,3.4,1.1c-.2,1.1-5.3,4.9-4.9,5.7.4.8,7-1.9,7.4-1.1.3.8-6.1,5.3-5.4,6,.7.6,8.9-3,9.5-2.4.6.7-6.1,5.4-6.1,6.4s5.4-1,6.1-.4c.7.6-2.9,3.6-2,4.1.8.5,6.7-1.8,7.2-1,.4.7-4.5,4.5-4.7,5.6s2.8.3,3.5,1,1.5,2.3,1,3.1c-.4.8-3.4.8-3.6,1.7-.3.8,2.7,2.7,2.3,3.5-.5.8-5.1.3-5,1.3.1.9,5.8,3.6,5.4,4.4s-7.2-.3-7.8.4c-.5.8,5.1,3.4,4.5,4.2-.5.8-7-.3-7.7.4-.6.8,3.3,3.3,3.9,4"/>
  <path class="st17" d="M90.6,55c.3.4,2.1,1.7,2,2.6-.1.8-3,1.7-2.7,2.5.3.9,4.9,1.7,4.6,2.6-.2.8-6,1.7-6,2.5.1.9,6.5,1.7,6.4,2.6-.2.8-7.2,1.7-7.5,2.5-.4.9,5.2,1.7,5.2,2.6-.1.8-5.2,1.7-5.5,2.5-.3.9,3.1,1.7,3.5,2.6s-.2,2.9-1.1,3.1c-.9.3-3.6-2.3-4.2-1.6-.6.6,1.5,5.4.7,5.7-.9.2-5.3-4.7-6-4.1-.6.6,2.5,6.7,2,7.5-.5.9-4.2-3.1-4.9-2.5-.7.5,1.8,5.8.8,5.8-1,.1-6.1-5.8-6.8-5.2-.6.6,3.7,8.5,2.9,8.9-.9.3-6.8-7-7.9-7-1,.1,2.3,6.5,1.8,7.3-.6.7-4.4-3.4-5-2.7-.7.6,2,6.1,1.1,6.3-.8.3-5.3-4.7-6.3-4.6s-.4,4.1.3,5.1,3.7-.1,3.7.9c.1,1-3.8,4.1-3.5,4.9.3.9,4.8-.6,5.3.1.5.7-3.2,3.8-2.3,4.2,1,.5,8-2.5,8.2-1.5.1.9-7.6,6.2-7.5,7.1.1.9,7.8-2.3,8.1-1.5.2.8-6.7,5.7-6.3,6.5.4.8,7.9-2.5,8.6-1.9.7.7-4.5,4.5-4.5,5.6-.1,1,2.9.3,4.2.6s3.4.4,3.5,1.2c.1.9-3,3.1-2.7,3.9.3.8,4.3,0,4.5.8.1.9-3.9,3.5-3.6,4.3.3.8,4.7-.2,5.1.5.4.8-3.4,3.3-2.7,3.9.7.6,6.7-1.1,7-.3.2.8-5.9,4.4-5.5,5.1.5.7,7.4-1.4,8.1-.8.8.6-3.1,3.7-3.7,4.4"/>
  <path class="st38" d="M90.6,55c.2.4,1.8,1.7,1.3,2.6-.4.8-4.3,1.7-4.2,2.5.1.9,4.8,1.7,4.8,2.6,0,.8-5.1,1.7-4.8,2.5.4.9,7.1,1.7,7.1,2.6,0,.8-7.1,1.7-7.2,2.5-.1.9,6.9,1.7,6.5,2.6-.4.8-8.3,1.7-8.9,2.5-.6.9,3.7,2.7,5.4,2.6,1.7-.1,4.5-3.5,5.1-2.9.6.7-1.8,5.8-1.4,6.8.4.9,3.4-2,3.7-.9.4,1-2.6,6.9-1.7,7.1,1,.2,6.6-6.6,7.3-6,.7.5-3.7,8.5-3.1,9.2.6.7,5.6-5.2,6.5-4.9.8.3-2.2,6.3-1.4,6.6.8.4,5.2-4.5,6.1-4.3.9.3-1.6,5.5-.7,5.8.8.3,5.3-4.8,5.8-4s-3.3,8-2.7,8.7c.6.7,5.3-4.8,6.4-4.8,1,.1-.6,3.9-.1,4.9.4.9,1.8-.1,2.6.7s3.1,3.9,2.1,4.3c-1,.5-7.7-2.5-8.2-1.8-.5.8,5.8,5.6,5.4,6.3-.5.8-7.8-2.5-8.1-1.7-.4.8,6.4,5.9,5.9,6.6-.4.8-8-2.7-8.5-2-.6.7,5.6,5.4,5.3,6.3-.2.9-6.3-1.7-6.7-1-.5.8,5.1,5.2,4.1,5.6-.9.5-8.9-3.3-9.9-2.9-1.1.4,2.5,3.8,3.6,5.3s3.9,3.3,3,3.9c-.9.7-7.8-.8-8.4,0-.5.7,5.2,3.7,5,4.6-.2.8-6.1-.3-6.4.6-.3.8,5.2,3.7,4.8,4.5-.4.8-7.2-.6-7.1.4s7.5,4.6,7.5,5.5c-.1.9-6.8-.4-7.8.1-1.1.6,1.2,2.8,1.4,3.4"/>
  <path class="st40" d="M90.6,55c.8.4,5.7,1.7,5,2.6-.7.8-8.7,1.7-9.2,2.5-.4.9,6,1.7,6.2,2.6.2.8-5.3,1.7-4.9,2.5.5.9,7.8,1.7,7.7,2.6-.2.8-8.3,1.7-8.8,2.5-.4.9,6,1.7,6.1,2.6,0,.8-5.6,1.7-6,2.5-.3.9,2.7,2.2,3.9,2.6,1.2.4,3.1-1.5,3.5-.4.3,1-2.3,6.4-1.6,6.9s5-4.2,5.8-3.9c.8.4-1.9,5.9-.9,6s6.2-6,6.7-5.3c.6.7-3.6,8.5-3.2,9.4.4,1,5-4.3,5.8-3.8.7.4-2.2,6.3-1.5,6.7.8.4,4.9-4.1,6-4.1s-.3,3.6.5,3.9c.9.3,4.1-2.9,4.5-2,.5.8-2.4,6.7-1.7,7.1.8.5,5.6-5.1,6.2-4.4.6.6-2.9,7.3-2.5,8.3.4,1,3.7-2.7,4.8-2.4s2.4,3.5,1.6,4.1c-.8.5-6-1.6-6.3-.7-.3.8,5.3,5.2,4.5,5.8-.7.6-8.3-3-8.9-2.3-.6.7,5.5,5.4,5.4,6.3-.1,1-5.3-1.1-5.8-.4-.6.7,2.8,3.8,2.3,4.5-.6.7-5.3-1.1-5.9-.4-.6.7,2.9,3.8,2.3,4.5-.5.7-5-1-5.7-.4s.4,3.3,1.5,4,5.4-.5,5.2.5c-.2,1-6.3,4.5-6.2,5.4.1.9,6.2-.9,6.7-.2.6.7-4.1,3.6-3.5,4.3.5.7,6.8-1.2,6.9-.3.1.9-6.8,4.8-6.6,5.6s7.4-1.4,7.8-.6c.5.7-5.3,4.1-5.1,4.9.2.9,5.3-.5,6.1.1.8.6-1.1,2.8-1.3,3.3"/>
  <path class="st16" d="M90.6,55c.2.4,1.8,1.7,1.3,2.6-.5.8-4.9,1.7-4.5,2.5.5.9,7.6,1.7,7.3,2.6-.2.8-8.7,1.7-8.8,2.5,0,.9,7.8,1.7,8.3,2.6.5.8-5.5,1.7-5.4,2.5.1.9,6.3,1.7,6,2.6-.4.8-7.2,1.7-7.9,2.5-.7.9,2.3,2.5,3.7,2.6s4-2.8,4.4-1.9c.4,1-2.6,7.1-1.9,7.6.7.5,5.4-5,6.2-4.5.7.4-2.6,6.8-1.9,7.3.7.6,5.2-4.5,6.1-4.2.8.3-1.8,5.7-1.1,6.2.7.6,4.6-3.7,5.1-2.9.5.9-3.1,7.7-2.2,8,.8.3,6.3-6.2,7.1-5.9.9.3-2.8,7.3-2.1,7.8.8.4,5.9-5.6,6.6-5.2.8.5-3,7.6-2.2,8,.8.4,6.1-5.9,6.9-5.6.9.3-2,6.2-1.8,7.4.2,1.2,1.8.1,3.2-.1s5.3-2,5.3-.8c0,1.1-5.7,6.8-5.6,7.8.2,1.1,5.6-2.2,6.4-1.6.7.6-3,4.7-2,5,1.1.3,7.9-4.1,8.2-3.2.3.9-6.3,7.3-6.3,8.5,0,1.1,5.7-2.3,6.3-1.6.6.6-3.4,5-2.6,5.5.9.4,7.2-3.5,7.7-2.8.5.8-5.2,6.5-4.5,7.1.6.6,7.4-3.7,8.6-3.5,1.1.2-.8,3.6-1.5,4.6s-3.1.5-2.9,1.5c.3,1,4.9,3.9,4.4,4.6-.6.7-7.4-1.4-7.8-.6-.4.7,5.5,4.2,5.2,4.9-.3.8-6.7-1-7-.2-.3.7,5.6,4.2,5.4,5-.3.8-6.3-.9-6.8-.2s4.1,3.6,3.8,4.4c-.4.8-5-.4-5.7.2-.7.7,1.2,2.8,1.4,3.4"/>
  <path class="st3" d="M90.6,55c.4.4,3.1,1.7,2.5,2.6-.7.8-6.9,1.7-6.4,2.5.5.9,9,1.7,9.2,2.6.2.8-7.5,1.7-8,2.5-.5.9,5.1,1.7,5,2.6-.1.8-5.4,1.7-5.6,2.5-.1.9,4.1,1.7,4.5,2.6.4.8-1.9,1.7-2.1,2.5-.2.9-.1,2.7.9,2.6s4.7-3.8,5.2-3c.5.9-2.7,7.1-2.3,8.1.3,1,3.9-2.7,4.5-2,.6.7-1.9,5.8-1,6,.9.3,5.6-5.1,6.3-4.6.7.5-2.7,7.1-2.1,7.7.7.6,5.2-4.5,5.9-3.9.6.6-2.8,7.1-1.9,7.4.9.2,6.3-6.2,7.2-6,.9.3-2.7,7-2,7.6.7.5,5.7-5.2,6.2-4.4.5.8-3.8,8.6-3.2,9.3.6.7,5.6-5.1,6.6-5.1,1.1-.1-.7,4.2-.2,5,.5.8,2-.1,3.2-.1s3.5-.6,3.8.4c.3.9-2.7,4.4-2.1,5.1.7.6,5.7-2.3,6.1-1.5.4.9-4.6,6-3.9,6.6.6.6,7.5-3.7,7.9-3,.5.8-5.5,6.7-5.1,7.5.4.9,6.8-3.1,7.5-2.5.7.5-3.8,5.3-3.4,6.1.4.8,5.3-2,5.8-1.2.4.8-3.9,5.3-3.1,5.9.7.5,6.5-2.9,7.5-2.7,1.1.3-.5,3-1,4.3s-3.1,3.2-2.1,3.7c1,.4,7.6-1.5,8-.8.5.7-5.3,4.2-5.3,5.1s5.3-.5,5.4.3c.1.9-5.3,4.1-4.7,4.8.5.7,7.3-1.3,8-.7.7.6-4,3.5-3.6,4.3.3.7,5.6-.6,6,.1.3.8-3.6,3.4-3.9,4.4s1.8,1.5,2.2,1.8"/>
  <path class="st39" d="M90.6,55c.4.4,2.9,1.7,2.3,2.6-.7.8-6.1,1.7-6.1,2.5,0,.9,5.7,1.7,5.9,2.6.1.8-5.1,1.7-5,2.5.2.9,6.2,1.7,6,2.6-.2.8-7.3,1.7-7.3,2.5-.1.9,7.1,1.7,7.2,2.6.1.8-6.2,1.7-6.7,2.5-.5.9,2.5,2.3,3.7,2.6,1.2.3,3-1.4,3.5-.5.4.9-1.5,5.3-.8,5.9.7.5,4.3-3.3,4.9-2.7.7.6-1.9,5.9-1.2,6.4.8.5,4.8-3.8,5.6-3.5.9.2-1.4,5.1-.4,5.3.9.1,5.5-5.1,6.1-4.5.7.6-2.7,7.2-2.3,8.1.5.9,4.2-3,5-2.8.9.3-.6,4.1.2,4.4.8.4,4.1-2.9,4.7-2.2.5.8-2.4,6.6-1.5,6.8.9.2,6-5.7,6.9-5.5.9.3-1.9,5.9-1.6,7,.3,1.1,2.3-.4,3.3-.2s2.7.1,2.8,1.2c0,1.1-3.2,4.8-2.4,5.3.7.6,6.3-2.8,6.9-2.1.6.7-4.2,5.7-3.6,6.3s6.6-3,7.4-2.5c.7.6-3.5,5-2.8,5.6.7.6,6.4-2.8,6.8-2,.4.9-4.9,6.3-4.4,7,.5.7,6.6-3,7.3-2.5.8.6-3.5,5.1-3,5.8.6.8,5.4-1.9,6.2-1.5.8.5-1.1,3.2-1.2,4.4s-.3,2,.3,2.6c.7.6,3.9.1,3.7,1.1-.3,1.1-5.9,4.4-5,4.9.8.6,9.7-2.4,10.1-1.6.4.7-7.8,5.2-7.8,6.1-.1.9,7.4-1.4,7.6-.6.2.8-6.7,4.8-6.4,5.5.4.8,7.9-1.6,8.5-.9.6.7-4.9,3.9-5,4.9-.2,1,3.3.8,4,1"/>
  <path class="st36" d="M90.6,55c.6.4,3.6,1.7,3.4,2.6-.2.8-4.4,1.7-4.7,2.5-.3.9,3.2,1.7,3,2.6-.2.8-4.5,1.7-4.5,2.5.1.9,5.2,1.7,5,2.6-.2.8-6,1.7-5.9,2.5,0,.9,6.3,1.7,6.1,2.6-.2.8-6.8,1.7-7.2,2.5-.4.9,4,1.5,4.8,2.6.8,1.1.9,4.4-.3,4.3-1.1-.1-5.9-5.6-6.5-5-.7.6,3.3,8,2.6,8.6-.6.6-5.7-5.4-6.6-5.2-1,.2,1.9,5.9,1,6.2-.9.2-5.9-5.6-6.4-4.8-.5.8,3.9,8.9,3.2,9.5-.6.6-6.1-6-7-5.8-.9.3,2.2,6.5,1.7,7.3-.5.8-4.1-3-4.7-2.2-.5.7,2.3,6.4,1.3,6.5s-6.2-6-7-5.7c-.9.3,2.5,6.8,1.9,7.5-.7.6-4.7-3.9-5.7-3.7-.9.1-.9,3.7-.1,4.5s5.3-1,5.2.1c-.1,1-6,5.3-5.7,6.2.3.8,6.8-1.9,7.4-1.2.6.7-4.5,4.5-3.9,5.2.5.7,7.1-2,7.2-1.1.1,1-6.6,5.7-6.7,6.7,0,1,5.9-1.3,6.4-.6.5.7-4.1,4.3-3.3,4.9.7.6,7-2,7.7-1.3.7.6-3.6,4-3.7,5,0,1,2.2.7,3.4,1.1s3.9.1,3.6,1.2c-.3,1-5.7,4.3-5.4,5,.4.8,7-1.2,7.6-.5.6.6-4.4,3.7-4,4.5.3.7,6-.8,6.2,0,.1.9-5.5,4.2-5.3,5,.2.9,5.8-.7,6.5,0,.6.6-3.2,3.1-2.7,3.9.4.7,4.8-.3,5.3.4.6.6-1.5,2.9-1.8,3.5"/>
  <path class="st12" d="M90.6,55c.4.4,2.8,1.7,2.2,2.6-.6.8-5.6,1.7-5.9,2.5-.2.9,4.1,1.7,4.4,2.6.2.8-2.9,1.7-2.7,2.5.1.9,3.9,1.7,3.6,2.6-.3.8-5.8,1.7-5.4,2.5.4.9,7.1,1.7,7.6,2.6.5.8-4,1.7-4.7,2.5-.6.9.7,1.3.9,2.6.2,1.3,1.3,5.1.3,5.2-1,0-5.4-4.9-6.3-4.7s1.7,5.6.8,5.9c-.8.3-5-4.3-5.7-3.8-.8.4,1.7,5.6,1.1,6.3-.5.8-3.8-2.5-4.4-1.8-.6.6,1.5,5.3.7,5.8-.7.4-4.7-4-5.4-3.3-.6.6,2.5,6.7,1.8,7.2-.8.4-5.4-4.9-6.2-4.5-.8.4,2.3,6.6,1.4,6.9-.8.3-5.8-5.5-6.6-5.1-.7.4,2.5,6.8,2,7.6-.5.8-4-2.8-5-2.7-1,0-1,1.9-1.1,3s1.6,3.5.4,3.7c-1.2.2-6.8-3.1-7.5-2.5-.7.6,3.6,5.1,3.2,6-.3.8-4.9-1.7-5.2-.8-.2,1,4.4,5.8,3.9,6.5-.4.8-5.8-2.3-6.5-1.8-.8.5,2.7,4.5,1.9,5s-6.1-2.6-6.8-2c-.7.5,3.2,4.8,2.5,5.4-.6.6-5.9-2.5-6.3-1.7s3.8,5.4,3.9,6.6c.1,1.2-2.1.4-3.5.6s-5-.4-4.7.7c.2,1,6.5,4.6,6.3,5.5-.2.8-6.7-1.1-7.3-.5-.6.7,4.2,3.7,3.6,4.3-.5.7-6.8-1.1-6.9-.2-.1.8,6.8,4.8,6.3,5.4-.5.7-8.9-2-9.3-1.3-.3.8,6.8,4.8,7.1,5.8.3,1.1-4.5-.1-5.4.4-.8.6.3,2.4.3,2.9"/>
  <circle class="st28" cx="28" cy="148" r="4"/>
  <circle class="st1" cx="65" cy="148" r="4"/>
  <circle class="st35" cx="100" cy="148" r="4"/>
  <circle class="st1" cx="82" cy="148" r="4"/>
  <circle class="st4" cx="133" cy="148" r="4"/>
  <circle class="st28" cx="48.43" cy="148" r="4"/>
  <circle class="st5" cx="90.6" cy="55" r="2.5"/>
  <g class="st2">
    <g class="st2">
      <g class="st2">
        <text class="st14" transform="translate(47.68 173)"><tspan x="0" y="0">MitoDrift</tspan></text>
      </g>
    </g>
  </g>
  <circle class="st35" cx="118.5" cy="148" r="4"/>
  <circle class="st31" cx="153" cy="148" r="4"/>
</svg>