<?xml version="1.0" encoding="UTF-8"?>
<svg id="Layer_1" xmlns="http://www.w3.org/2000/svg" xmlns:xlink="http://www.w3.org/1999/xlink" version="1.1" viewBox="0 0 181.2 209.3">
  <!-- Generator: Adobe Illustrator 29.7.1, SVG Export Plug-In . SVG Version: 2.1.1 Build 8)  -->
  <defs>
    <style>
      .st0, .st1, .st2, .st3, .st4, .st5, .st6, .st7, .st8, .st9, .st10, .st11, .st12, .st13, .st14, .st15, .st16, .st17, .st18, .st19, .st20, .st21, .st22, .st23, .st24, .st25, .st26, .st27, .st28, .st29, .st30, .st31, .st32, .st33, .st34, .st35, .st36, .st37, .st38, .st39 {
        isolation: isolate;
      }

      .st0, .st1, .st2, .st40, .st41, .st4, .st42, .st6, .st9, .st10, .st11, .st12, .st13, .st14, .st15, .st16, .st43, .st18, .st19, .st20, .st21, .st22, .st23, .st24, .st25, .st26, .st27, .st28, .st30, .st31, .st33, .st44, .st35, .st36, .st37, .st38, .st39 {
        fill: none;
      }

      .st0, .st1, .st2, .st9, .st10, .st11, .st12, .st13, .st14, .st19, .st20, .st21, .st22, .st23, .st24, .st25, .st26, .st27, .st28, .st31, .st33 {
        stroke: #9bd;
      }

      .st0, .st1, .st40, .st41, .st4, .st6, .st15, .st16, .st43, .st18, .st19, .st20, .st21, .st22, .st23, .st24, .st25, .st26, .st27, .st28, .st30, .st31, .st33, .st44, .st35, .st36, .st37, .st38, .st39 {
        stroke-linecap: round;
      }

      .st0, .st1, .st19, .st20, .st21, .st22, .st23, .st24, .st25, .st26, .st27, .st28, .st31, .st33 {
        opacity: .65;
      }

      .st0, .st9, .st36, .st39 {
        stroke-width: .7px;
      }

      .st45 {
        fill: url(#linear-gradient);
        stroke: #3a5a9a;
        stroke-linejoin: round;
        stroke-width: 3.5px;
      }

      .st1, .st11, .st15, .st35, .st38 {
        stroke-width: .5px;
      }

      .st2, .st6, .st9, .st10, .st11, .st12, .st13, .st14 {
        opacity: .75;
      }

      .st3 {
        fill: #568;
      }

      .st40 {
        stroke-width: 1.8px;
      }

      .st40, .st41, .st43, .st44 {
        stroke: #568;
      }

      .st41 {
        stroke-width: 1.4px;
      }

      .st4 {
        stroke: #fce61f;
      }

      .st4, .st42, .st16, .st18, .st30, .st37 {
        stroke-width: .8px;
      }

      .st4, .st18 {
        opacity: .8;
      }

      .st42 {
        stroke: #000;
      }

      .st6 {
        stroke: #b07aa1;
        stroke-width: .75px;
      }

      .st7 {
        fill: #8cc082;
      }

      .st8 {
        fill: #79b;
      }

      .st8, .st36, .st39 {
        opacity: .7;
      }

      .st9, .st31, .st33 {
        stroke-miterlimit: 2.8;
      }

      .st10 {
        stroke-width: .55px;
      }

      .st10, .st20, .st27 {
        stroke-miterlimit: 2.2;
      }

      .st11, .st21, .st26 {
        stroke-miterlimit: 2;
      }

      .st12, .st23, .st24 {
        stroke-miterlimit: 1.8;
      }

      .st12, .st28 {
        stroke-width: .45px;
      }

      .st13 {
        stroke-width: .65px;
      }

      .st13, .st25, .st28 {
        stroke-miterlimit: 2.6;
      }

      .st14 {
        stroke-width: .4px;
      }

      .st14, .st19, .st22 {
        stroke-miterlimit: 1.6;
      }

      .st15 {
        opacity: .25;
      }

      .st15, .st18 {
        stroke: #8cc082;
      }

      .st15, .st35, .st38 {
        stroke-dasharray: 2 3;
      }

      .st16, .st30, .st37 {
        opacity: .85;
      }

      .st16, .st38 {
        stroke: #e8c547;
      }

      .st43 {
        stroke-width: 2.2px;
      }

      .st17 {
        fill: #c8d6e8;
        font-family: HelveticaNeue-Medium, 'Helvetica Neue';
        font-size: 18px;
        font-weight: 500;
        letter-spacing: .08em;
      }

      .st19, .st20 {
        stroke-width: .28px;
      }

      .st21 {
        stroke-width: .25px;
      }

      .st22 {
        stroke-width: .24px;
      }

      .st23 {
        stroke-width: .31px;
      }

      .st24 {
        stroke-width: .27px;
      }

      .st25 {
        stroke-width: .32px;
      }

      .st26, .st31 {
        stroke-width: .35px;
      }

      .st27 {
        stroke-width: .39px;
      }

      .st29 {
        fill: #e8c547;
      }

      .st30 {
        stroke: #8ab4e0;
      }

      .st32 {
        fill: #e07653;
      }

      .st33 {
        stroke-width: .49px;
      }

      .st44 {
        stroke-width: 2.5px;
      }

      .st34 {
        fill: #5bbcd6;
      }

      .st35, .st37, .st39 {
        stroke: #5bbcd6;
      }

      .st35, .st38 {
        opacity: .3;
      }

      .st36 {
        stroke: #79b;
      }
    </style>
    <linearGradient id="linear-gradient" x1="-637.92" y1="497.8" x2="-637.92" y2="496.8" gradientTransform="translate(114405.4 103195.6) scale(179.2 -207.3)" gradientUnits="userSpaceOnUse">
      <stop offset="0" stop-color="#1a1f3a"/>
      <stop offset="1" stop-color="#0d1225"/>
    </linearGradient>
  </defs>
  <polygon class="st45" points="90.6 1 180.2 53.3 180.2 156 90.6 208.3 1 156 1 53.3 90.6 1"/>
  <polygon class="st42" points="90.6 8 173.5 56.3 173.5 152.7 90.6 201 7.7 152.7 7.7 56.3 90.6 8"/>
  <g>
    <path class="st2" d="M85.39,26.35l8.86-1.56c2.45-.43,4.78,1.2,5.21,3.65h0c.43,2.45-1.2,4.78-3.65,5.21l-8.86,1.56c-2.45.43-4.78-1.2-5.21-3.65h0c-.43-2.45,1.2-4.78,3.65-5.21Z"/>
    <path class="st1" d="M86.05,27.25l7.88-1.39c1.9-.34,3.72.94,4.05,2.84h0c.34,1.9-.94,3.72-2.84,4.05l-7.88,1.39c-1.9.34-3.72-.94-4.05-2.84h0c-.34-1.9.94-3.72,2.84-4.05Z"/>
    <path class="st0" d="M84.66,28c.93,2.38,1.59,3.27,1.04,5.91"/>
    <path class="st0" d="M87.58,27.28c1.05,3.06,1.71,3.96,1.11,6.3"/>
    <path class="st0" d="M91.03,26.67c1.05,3.06,1.71,3.96,1.11,6.3"/>
    <path class="st0" d="M94.02,26.35c.93,2.38,1.59,3.27,1.04,5.91"/>
  </g>
  <g>
    <path class="st9" d="M70.12,21.96l5.92,2.15c1.63.6,2.48,2.4,1.88,4.04h0c-.6,1.63-2.4,2.48-4.04,1.88l-5.92-2.15c-1.63-.6-2.48-2.4-1.88-4.04h0c.6-1.63,2.4-2.48,4.04-1.88Z"/>
    <path class="st31" d="M70.21,22.74l5.26,1.92c1.27.46,1.93,1.87,1.46,3.14h0c-.46,1.27-1.87,1.93-3.14,1.46l-5.26-1.92c-1.27-.46-1.93-1.87-1.46-3.14h0c.46-1.27,1.87-1.93,3.14-1.46Z"/>
    <path class="st33" d="M69.43,22.83c-.39,2.09-.3,2.87-1.44,3.95"/>
    <path class="st33" d="M72.11,23.66c-.56,2.55-.35,3-1.53,4.21"/>
    <path class="st33" d="M74.69,24.74c-.39,2.09-.18,2.54-1.44,3.95"/>
  </g>
  <g>
    <path class="st13" d="M107.11,26.59l5.3-2.47c1.46-.68,3.2-.05,3.89,1.41h0c.68,1.46.05,3.2-1.41,3.89l-5.3,2.47c-1.46.68-3.2.05-3.89-1.41h0c-.68-1.46-.05-3.2,1.41-3.89Z"/>
    <path class="st25" d="M107.68,27.04l4.71-2.2c1.14-.53,2.49-.04,3.02,1.1h0c.53,1.14.04,2.49-1.1,3.02l-4.71,2.2c-1.14.53-2.49.04-3.02-1.1h0c-.53-1.14-.04-2.49,1.1-3.02Z"/>
    <path class="st28" d="M107.52,27.47c1.12,1.63,1.55,1.79,1.65,3.53"/>
    <path class="st28" d="M110.12,26.11c1.31,2.04,1.74,2.2,1.76,3.77"/>
    <path class="st28" d="M112.53,25.13c1.12,1.63,1.55,1.79,1.65,3.53"/>
  </g>
  <g>
    <path class="st12" d="M59.5,31.18l3.32,2.32c.92.64,1.14,1.9.5,2.82h0c-.64.92-1.9,1.14-2.82.5l-3.32-2.32c-.92-.64-1.14-1.9-.5-2.82h0c.64-.92,1.9-1.14,2.82-.5Z"/>
    <path class="st24" d="M59.43,31.68l2.95,2.06c.71.5.89,1.48.39,2.19h0c-.5.71-1.48.89-2.19.39l-2.95-2.06c-.71-.5-.89-1.48-.39-2.19h0c.5-.71,1.48-.89,2.19-.39Z"/>
    <path class="st23" d="M59.48,31.99c-.59,1.23-.53,1.55-1.55,2.21"/>
    <path class="st23" d="M61.33,33.28c-.59,1.23-.53,1.55-1.55,2.21"/>
  </g>
  <g>
    <path class="st14" d="M85.05,17.59l2.76-2.31c.76-.64,1.9-.54,2.54.22h0c.64.76.54,1.9-.22,2.54l-2.76,2.31c-.76.64-1.9.54-2.54-.22h0c-.64-.76-.54-1.9.22-2.54Z"/>
    <path class="st22" d="M85.46,17.77l2.45-2.06c.59-.5,1.48-.42,1.97.17h0c.5.59.42,1.48-.17,1.97l-2.45,2.06c-.59.5-1.48.42-1.97-.17h0c-.5-.59-.42-1.48.17-1.97Z"/>
    <path class="st19" d="M85.89,17.67c.92.79,1.21.82,1.54,1.84"/>
    <path class="st19" d="M87.42,16.38c.92.79,1.21.82,1.54,1.84"/>
  </g>
  <g>
    <path class="st10" d="M75.75,34.32l4.93.43c1.36.12,2.37,1.32,2.25,2.68h0c-.12,1.36-1.32,2.37-2.68,2.25l-4.93-.43c-1.36-.12-2.37-1.32-2.25-2.68h0c.12-1.36,1.32-2.37,2.68-2.25Z"/>
    <path class="st20" d="M75.98,34.89l4.38.38c1.06.09,1.84,1.03,1.75,2.09h0c-.09,1.06-1.03,1.84-2.09,1.75l-4.38-.38c-1.06-.09-1.84-1.03-1.75-2.09h0c.09-1.06,1.03-1.84,2.09-1.75Z"/>
    <path class="st27" d="M75.95,35.16c.13,1.67.38,1.97-.29,3.29"/>
    <path class="st27" d="M78.42,35.38c.13,1.67.38,1.97-.29,3.29"/>
    <path class="st27" d="M80.34,35.55c.13,1.67.38,1.97-.29,3.29"/>
  </g>
  <g>
    <path class="st11" d="M100.24,20.41l4.35-1.16c1.2-.32,2.43.39,2.76,1.59h0c.32,1.2-.39,2.43-1.59,2.76l-4.35,1.16c-1.2.32-2.43-.39-2.76-1.59h0c-.32-1.2.39-2.43,1.59-2.76Z"/>
    <path class="st21" d="M100.62,20.83l3.86-1.04c.93-.25,1.89.3,2.14,1.24h0c.25.93-.3,1.89-1.24,2.14l-3.86,1.04c-.93.25-1.89-.3-2.14-1.24h0c-.25-.93.3-1.89,1.24-2.14Z"/>
    <path class="st26" d="M100.44,21.13c.63,1.38.94,1.56.78,2.9"/>
    <path class="st26" d="M103.09,20.42c.63,1.38.94,1.56.78,2.9"/>
  </g>
  <g>
    <path class="st12" d="M105.26,33.23l3.51,2.02c.97.56,1.3,1.8.74,2.77h0c-.56.97-1.8,1.3-2.77.74l-3.51-2.02c-.97-.56-1.3-1.8-.74-2.77h0c.56-.97,1.8-1.3,2.77-.74Z"/>
    <path class="st24" d="M105.23,33.74l3.12,1.8c.75.43,1.01,1.4.58,2.15h0c-.43.75-1.4,1.01-2.15.58l-3.12-1.8c-.75-.43-1.01-1.4-.58-2.15h0c.43-.75,1.4-1.01,2.15-.58Z"/>
    <path class="st23" d="M105.51,34.16c-.48,1.28-.4,1.59-1.35,2.34"/>
    <path class="st23" d="M107.65,35.39c-.48,1.28-.4,1.59-1.35,2.34"/>
  </g>
  <line class="st44" x1="90.6" y1="42" x2="90.6" y2="78"/>
  <line class="st43" x1="90.6" y1="78" x2="58" y2="100"/>
  <line class="st43" x1="90.6" y1="78" x2="123" y2="100"/>
  <line class="st40" x1="58" y1="100" x2="38" y2="125"/>
  <line class="st40" x1="58" y1="100" x2="72" y2="125"/>
  <line class="st40" x1="123" y1="100" x2="108" y2="125"/>
  <line class="st40" x1="123" y1="100" x2="143" y2="125"/>
  <line class="st41" x1="38" y1="125" x2="28" y2="148"/>
  <line class="st41" x1="38" y1="125" x2="48" y2="148"/>
  <line class="st41" x1="72" y1="125" x2="65" y2="148"/>
  <line class="st41" x1="72" y1="125" x2="82" y2="148"/>
  <line class="st41" x1="108" y1="125" x2="100" y2="148"/>
  <line class="st41" x1="108" y1="125" x2="118" y2="148"/>
  <line class="st41" x1="143" y1="125" x2="133" y2="148"/>
  <line class="st41" x1="143" y1="125" x2="153" y2="148"/>
  <path class="st16" d="M90.6,42c.7.4,5.1,1.7,4.1,2.6-.9.8-9.6,1.7-9.8,2.5-.2.9,7.8,1.8,8.5,2.6.7.9-4.4,1.7-4.5,2.6-.1.8,4.1,1.7,3.8,2.6-.2.8-5.3,1.7-5.3,2.5.1.9,5.4,1.7,5.6,2.6.1.9-4.8,1.7-4.8,2.6.1.8,5.3,1.7,5.2,2.5-.1.9-5.8,1.8-5.7,2.6.1.9,6.3,1.7,6.4,2.6,0,.8-5.7,1.7-6.1,2.6-.4.8,3.4,1.7,3.8,2.5.5.9-.2,2.5-1.2,2.6s-4.3-3.2-4.5-2c-.3,1.1,3.4,8.2,2.8,8.9-.5.7-5.4-4.9-6.3-4.7-.9.2,1.4,5.1.7,5.8-.6.7-3.8-2.5-4.4-1.9-.6.7,1.5,5.3.7,5.8-.8.4-4.4-3.5-5.3-3.3-1,.2.3,3.7-.3,4.3s-3-1.3-3.6-.6c-.6.7,1,4.5.1,4.9-.8.3-4.5-3.7-5.1-3.1-.6.7,2.4,6.8,1.5,7.1-.8.3-5.7-5.5-6.6-5.2-.9.2,1.6,5.6,1.3,6.6-.4,1-2.3-.5-3.6-.6s-4.2-1.1-4.3,0c-.1,1.1,4,5.4,3.7,6.4-.2,1-4.2-1.1-4.9-.6-.8.5,1.5,3.5.3,3.7s-7.3-3.6-7.5-2.6c-.1,1.1,7.2,8,6.8,8.8-.5.8-8.6-4.5-9.3-3.9-.7.5,4.9,6.2,4.8,7.2-.1,1-5.1-1.8-5.7-1.1-.5.7,3.4,4.9,2.4,5.3-1,.4-7.1-3.4-8.2-3.1-1,.3.9,3.3,1.9,4.9s5.1,4,3.9,4.4c-1.2.4-10.4-2.7-11.1-2-.6.6,7.5,5,7.5,5.9-.1.9-7.5-1.4-7.8-.6s6,4.4,5.8,5.2c-.2.9-6.4-.9-7.2-.3-.7.5,2.9,3,2.8,3.9-.2.8-3.2.4-3.5,1.2-.4.8,1.5,2.5,1.5,3.4-.1.9-1.6,1.6-1.9,1.9"/>
  <path class="st4" d="M90.6,42c.6.4,4.3,1.7,3.9,2.6-.4.8-6.1,1.7-6.2,2.5-.2.9,5.5,1.8,5.2,2.6-.2.9-6.4,1.7-6.6,2.6-.2.8,5,1.7,5.3,2.6.2.8-4,1.7-3.8,2.5.2.9,5.4,1.7,5.1,2.6s-7,1.7-7,2.6c.1.8,7.4,1.7,7.5,2.5.1.9-7.2,1.8-7,2.6.3.9,8.2,1.7,8.5,2.6.3.8-6.4,1.7-6.8,2.6-.4.8,4,1.7,4.3,2.5.3.9-1.5,2.1-2.4,2.6s-2.7-.8-3,.2c-.4,1,1.7,5.7.8,6-.8.2-5.3-4.9-6.2-4.5-.8.4,2.2,6.3,1.4,6.7-.8.4-5.3-4.8-6.1-4.3-.8.4,2.2,6.2,1.5,6.8-.7.5-5.2-4.5-5.7-3.7-.4.9,3.6,8.4,2.9,8.9-.7.6-5.9-5.5-6.9-5.5-1.1,0,1.4,5.2.6,5.6-.9.3-5.2-4.5-5.7-3.8-.6.8,2.8,7.4,2.3,8.2-.5.8-4.5-3.6-5.2-3.1-.8.4,1.2,4.9.7,5.7-.6.7-2.8-1.1-4-1.2s-3.2-.3-3.3.8c0,1.1,3.7,5.2,2.9,5.7-.8.5-7-3.3-7.5-2.5-.4.7,5.6,6.7,4.8,7.2-.9.4-8.9-4.8-9.8-4.4-.9.4,4.5,5.9,4.4,6.9-.2,1-4.7-1.4-5.3-.8-.6.6,2.4,4.1,1.5,4.6-.8.5-6-2.5-6.4-1.7-.5.7,4.2,5.7,3.8,6.4-.5.8-5.7-2.3-6.6-1.8-.8.4.8,3.6,1.5,4.6s2.7.7,2.9,1.5c.1.8-2.2,2.8-1.9,3.5.3.8,3.8.2,3.7,1.2-.1.9-4.8,3.9-4.1,4.5.7.6,8-1.7,8.6-1,.6.6-5.1,4-5,4.9.1.9,5.2-.5,5.6.3.3.8-4.3,3.7-3.7,4.3.7.6,6.7-1.1,7.4-.4.6.6-2.9,3.5-3.5,4.2"/>
  <path class="st36" d="M90.6,42c.1.4,1.2,1.7.7,2.6-.6.8-4.6,1.7-3.9,2.5.8.9,8.5,1.8,8.5,2.6,0,.9-7.9,1.7-8.4,2.6-.5.8,5.6,1.7,5.5,2.6-.2.8-6.4,1.7-6.3,2.5.1.9,6.8,1.7,6.9,2.6.2.9-5.8,1.7-5.8,2.6,0,.8,6.1,1.7,5.7,2.5-.4.9-8.5,1.8-8.3,2.6.3.9,9.5,1.7,9.7,2.6.2.8-8.4,1.7-8.5,2.6-.2.8,6.9,1.7,7.6,2.5.7.9-2.1,2.5-3.4,2.6-1.3.1-4.1-2.9-4.5-2-.4,1,2.7,7.2,2,7.7-.7.4-5.5-5.1-6.4-4.8-.9.2,1.9,5.9,1,6.2-.8.3-5.5-5.1-6-4.3-.5.9,3.9,9,3.2,9.5-.7.5-6.6-6.7-7.4-6.2-.7.4,3.4,8.1,2.9,8.9s-5-4.3-5.8-4c-.9.3,1.5,5.5.6,5.7-.9.2-5.4-4.9-6.1-4.4-.7.5,2.5,6.8,1.7,7.2-.8.4-5.8-5.5-6.4-4.8-.5.8,3.3,8.1,3.1,9.3s-3.3-2.4-4.5-2-3.1,3.7-2.5,4.4c.6.6,5.5-1.1,6.2-.5.6.6-2.9,3.6-2.1,4.2.9.5,6.8-1.8,7.2-1.1.4.8-4.7,4.6-4.6,5.6,0,.9,4.5-.5,5.1.1.6.7-1.8,3-1.4,3.8.5.7,3.8-.2,4.1.7.2.8-3.3,3.8-2.6,4.4.8.6,6.2-1.5,7-.9.7.6-1.4,3.3-2.4,4.3s-3.9.7-3.8,1.6c.2,1,5.1,3.4,4.5,4.2-.5.8-7.1-.3-7.7.5-.5.7,4.3,3.1,4.6,4.1.3,1.1-3.2.9-2.8,2,.3,1,5.1,3.4,4.7,4.2-.4.8-6.8-.2-7.2.6-.4.8,4.6,3.3,4.7,4.2.1,1-3.3,1.3-4,1.6"/>
  <path class="st30" d="M90.6,42c.3.4,2.1,1.7,2,2.6-.1.8-3,1.7-2.7,2.5.3.9,4.9,1.8,4.6,2.6-.2.9-6,1.7-6,2.6.1.8,6.5,1.7,6.4,2.6-.2.8-7.2,1.7-7.5,2.5-.4.9,5.2,1.7,5.2,2.6-.1.9-5.5,1.7-5.5,2.6,0,.8,5.2,1.7,5.5,2.5.3.9-4,1.8-3.8,2.6.2.9,5.4,1.7,5.1,2.6-.2.8-6.7,1.7-6.6,2.6.1.8,6.7,1.7,7.3,2.5.5.9-2.9,2-4,2.6s-2.4-.4-2.7.7c-.3,1.1,1.8,5.8.8,5.9s-6-5.9-6.7-5.3c-.6.6,3.7,8.6,2.8,8.9-.8.4-6.8-7-7.8-6.9-1,0,2.3,6.5,1.7,7.2-.5.8-4.3-3.3-5-2.7-.6.6,2,6.1,1.2,6.4-.9.3-5.6-5.1-6.3-4.6-.7.4,2.4,6.7,1.8,7.4-.5.7-4.4-3.4-5.2-3.1-.8.4,1.1,4.7.4,5.3-.7.6-4.1-2.9-4.4-1.9-.4,1,2.7,7.2,2.2,8-.6.8-4.1-3.5-5.4-3.3s-3.4,3.9-2.4,4.3c.9.5,7.7-2.3,8-1.5.3.9-6.7,5.8-6.3,6.5.4.8,8-2.4,8.7-1.8.6.6-4.9,4.7-4.6,5.5.4.8,5.9-1.3,6.6-.7.7.6-2.6,3.5-2.2,4.3.3.7,4.3-.5,4.5.4.3.8-3.4,3.9-3,4.7.3.8,4.4-.5,5.1.1.8.5-.2,2.1-.4,3.2s-1.9,2.7-.9,3.1c1,.5,6.7-1.1,7-.3.2.8-5.9,4.4-5.5,5.1.5.7,7.7-1.5,8.1-.8.5.8-5.4,4.2-5.3,5.1,0,.9,6-.8,5.9.2-.1.9-6.6,4.7-6.5,5.5,0,.9,6.5-1,6.9-.2.4.7-4.5,3.7-4.4,4.6,0,.9,3.9.6,4.7.7"/>
  <path class="st37" d="M90.6,42c.2.4,1.8,1.7,1.3,2.6-.4.8-4.3,1.7-4.2,2.5.1.9,4.8,1.8,4.8,2.6,0,.9-5.1,1.7-4.8,2.6.4.8,7.1,1.7,7.1,2.6,0,.8-7.1,1.7-7.2,2.5-.1.9,6.9,1.7,6.5,2.6s-9.2,1.7-8.9,2.6c.3.8,10,1.7,10.7,2.5.7.9-5.8,1.8-6.4,2.6-.6.9,3.5,1.7,2.8,2.6-.7.8-7.2,1.7-6.9,2.6.4.8,8.3,1.7,9.1,2.5.9.9-3.1,1.2-3.9,2.6-.8,1.4-1.8,5.8-.9,6,.9.2,5.6-5.2,6.5-4.9.8.3-2.2,6.2-1.4,6.6.8.4,5.2-4.6,6.1-4.3.9.2-1.6,5.5-.7,5.8.8.3,5.3-4.8,5.8-4,.5.8-3.3,8-2.7,8.7.6.6,5.3-4.8,6.4-4.8,1,0-.9,4.4-.1,4.8.8.4,4.4-3.5,4.9-2.6.4.9-3,7.6-2.3,8.1.7.5,5.8-5.5,6.5-5,.7.4-3,7.5-2.2,7.9.8.4,5.8-5.5,6.9-5.6,1.1,0,.4,4.4-.4,5.3s-4.7-.8-4.6.3c.1,1.1,5.6,5.4,5.3,6.3-.2.9-6.3-1.7-6.7-.9-.4.7,5.1,5.1,4.1,5.5-.9.5-9.4-3.6-9.9-2.8-.4.7,7.4,6.4,7.2,7.4-.2.9-7.5-2.5-8.2-1.8-.7.6,4.3,4.6,3.9,5.4-.4.8-5.9-1.5-6.3-.7-.5.8,3.7,4.3,3.8,5.4,0,1-2.2.5-3.6.9s-5.1.1-4.7,1.2c.5,1.2,7.6,4.6,7.5,5.5,0,1-7.3-.6-7.8.2-.4.8,5.6,3.8,5.3,4.7-.4.8-7-.6-7.3.3-.3.8,5.6,3.8,5.4,4.7-.1,1-5.4.1-6.2.7-.8.7,1.5,2.5,1.5,3.4,0,1-1.4,1.9-1.7,2.3"/>
  <path class="st39" d="M90.6,42c.8.4,5.7,1.7,5,2.6-.7.8-8.7,1.7-9.2,2.5-.4.9,6,1.8,6.2,2.6.2.9-5.3,1.7-4.9,2.6.5.8,7.8,1.7,7.7,2.6-.2.8-8.3,1.7-8.8,2.5-.4.9,6,1.7,6.1,2.6,0,.9-6,1.7-6,2.6.1.8,6.3,1.7,6.2,2.5-.1.9-6.6,1.8-6.6,2.6-.1.9,6.3,1.7,6.4,2.6.2.8-5.8,1.7-5.4,2.6.5.8,7.6,1.7,8.2,2.5.5.9-4,1.3-4.9,2.6s-1.4,5.1-.5,5.4c.9.3,5-4.3,5.8-3.9.7.5-2.2,6.3-1.5,6.8.8.4,4.9-4.1,6-4.1,1.1-.1-.3,3.5.5,3.8.9.4,4.1-2.8,4.5-2,.5.9-2.4,6.8-1.7,7.2.8.5,5.6-5.1,6.2-4.5.6.7-3.2,7.9-2.5,8.4.7.5,5.8-5.5,6.8-5.3.9.1-2,5.9-1.1,6.2.8.4,5.5-5,6-4.2.5.8-3.4,8.2-2.8,8.8.6.6,5.5-5,6.6-5.1s.5,3.5.1,4.5-2.7.5-2.7,1.5c-.1.9,2.9,3.7,2.3,4.4-.6.7-5.3-1.1-5.8-.4-.6.7,2.8,3.8,2.3,4.5-.6.7-5.7-1.3-5.8-.3,0,1,5.9,5.5,5.4,6.3-.4.8-7.4-2.4-8-1.8-.7.7,4.2,4.7,3.9,5.5-.2.9-5.4-1.2-5.6-.3s4.4,4.7,4.2,5.6c-.2,1-3.9-.6-5.2,0s-3.4,3.3-2.5,3.8,7.4-1.4,7.8-.6c.5.7-5.3,4.1-5.1,4.9.2.9,6-.8,6.1.1.1.9-6.1,4.5-5.6,5.2.4.7,7.9-1.6,8.4-.9.4.7-5.5,4.1-5.5,5.1,0,.9,4.9-.3,5.2.4.3.8-3.5,3.4-3.3,4.2s3.8.7,4.5.8"/>
  <path class="st18" d="M90.6,42c.2.4,1.8,1.7,1.3,2.6-.5.8-4.9,1.7-4.5,2.5.5.9,7.6,1.8,7.3,2.6-.2.9-8.7,1.7-8.8,2.6,0,.8,7.8,1.7,8.3,2.6.5.8-5.5,1.7-5.4,2.5.1.9,6.3,1.7,6,2.6-.4.9-7.9,1.7-7.9,2.6-.1.8,7.7,1.7,7.7,2.5.1.9-7.3,1.8-7.3,2.6,0,.9,7.2,1.7,7.2,2.6,0,.8-7.1,1.7-7.1,2.6-.1.8,6.3,1.7,6.9,2.5.5.9-3.3,1.6-3.7,2.6s0,3.1,1,3.2c1,0,4.6-3.7,5.1-2.9.5.9-3.1,7.6-2.2,8,.8.3,6.3-6.2,7.1-5.9.9.3-2.8,7.3-2.1,7.7.8.5,5.9-5.6,6.6-5.1.8.5-3,7.6-2.2,8,.8.4,6.1-5.9,6.9-5.6.9.3-2.5,6.8-1.8,7.3.7.6,5.4-4.8,5.8-3.9.5.9-3.4,8.2-3,9.1.4,1,4.6-3.7,5.5-3.4.8.3-1.5,5.3-.5,5.3,1.1-.1,5.9-5.5,6.9-5.5s-.2,3.9-.7,5.7-3,4.6-2.3,5.3c.7.6,5.6-2.3,6.3-1.6.6.6-3.5,5-2.6,5.4.8.5,7.1-3.4,7.6-2.7.6.8-5.1,6.5-4.5,7.1.7.6,7.7-3.9,8.6-3.5.9.4-3.5,5.1-3,5.8.5.8,5.8-2.4,6.2-1.5.3.9-4.6,5.9-4.1,6.7s6.3-2.8,6.9-2.1c.6.7-3.6,5.1-3.4,6.1.1,1,3.2-.6,4.3,0s3,3.1,2.3,3.7c-.8.6-6.3-.9-6.8-.2s4.1,3.6,3.8,4.4c-.4.8-5.4-.5-5.7.2-.3.8,4.2,3.7,3.8,4.4-.5.8-6.3-.9-6.3,0-.1.9,6,4.5,5.7,5.3-.2.8-6.6-1.1-7.4-.5-.8.5,2.7,3,2.8,3.9.1,1-1.8,1.5-2.2,1.8"/>
  <path class="st6" d="M90.6,42c.4.4,3.1,1.7,2.5,2.6-.7.8-6.9,1.7-6.4,2.5.5.9,9,1.8,9.2,2.6.2.9-7.5,1.7-8,2.6-.5.8,5.1,1.7,5,2.6-.1.8-5.4,1.7-5.6,2.5-.1.9,4.1,1.7,4.5,2.6.4.9-2.8,1.7-2.1,2.6.7.8,6.6,1.7,6.3,2.5-.3.9-7.3,1.8-8,2.6-.6.9,4.4,1.7,4.2,2.6-.2.8-5.9,1.7-5.6,2.6.3.8,6.7,1.7,7.4,2.5.7.9-2.8,1.4-3.4,2.6s-1.1,4.7-.2,4.9c1,.1,5.2-4.5,5.9-4,.6.6-2.8,7.2-1.9,7.5.9.2,6.3-6.3,7.2-6,.9.3-2.7,7-2,7.5.7.6,5.7-5.2,6.2-4.3.5.8-3.8,8.6-3.2,9.3.6.7,5.6-5.1,6.6-5.2,1.1,0-1,4.6-.2,5.1.7.4,4-2.9,4.8-2.4.7.5-1.4,5.1-.6,5.4.8.4,4.8-3.9,5.3-3.2.6.7-2.6,7.1-1.8,7.4.8.4,5.6-5.2,6.7-5.2,1,0-.1,3.6-.4,5.2s-2.6,4.4-1.6,4.7c.9.4,6.8-3.2,7.5-2.6.7.6-3.9,5.4-3.5,6.2.4.8,5.4-2,5.8-1.2.5.8-3.8,5.3-3.1,5.9.8.5,7-3.3,7.6-2.7.7.7-4.3,5.8-3.7,6.4.7.6,7-3.3,7.7-2.7.6.6-4.1,5.5-3.8,6.4.3.9,5.1-1.8,5.5-.9.4.8-3.5,5-3.2,5.9.2,1,3.3-.5,4.8-.4s4.2,0,4.3.9c.1.8-4,3.5-3.6,4.3.3.7,5.6-.6,6,.1.3.8-4.2,3.6-3.9,4.4s5.8-.7,5.8.2-5.5,4.2-5.5,5.2c-.1.9,4.6-.2,5.2.5.5.6-2.3,2.8-1.8,3.5.5.7,4.1,0,4.7.6.6.7-1,2.8-1.2,3.3"/>
  <path class="st38" d="M90.6,42c.4.4,2.9,1.7,2.3,2.6-.7.8-6.1,1.7-6.1,2.5,0,.9,5.7,1.8,5.9,2.6.1.9-5.1,1.7-5,2.6.2.8,6.2,1.7,6,2.6-.2.8-7.3,1.7-7.3,2.5-.1.9,7.1,1.7,7.2,2.6s-6.6,1.7-6.7,2.6c-.1.8,5.9,1.7,6.1,2.5.1.9-5.3,1.8-5.3,2.6-.1.9,5.1,1.7,5,2.6-.2.8-6,1.7-6,2.6,0,.8,5.4,1.7,6.1,2.5.6.9-2,1.6-2.2,2.6-.2,1-.4,3.7.8,3.5,1.1-.1,5.5-5,6.1-4.4.7.6-2.7,7.2-2.3,8.1.5.8,4.2-3.1,5-2.8.9.3-.6,4,.2,4.4.8.4,4.1-3,4.7-2.2.5.8-2.4,6.5-1.5,6.8.9.2,6-5.7,6.9-5.5.9.3-2,6-1.6,7,.4.9,3.5-2.1,4.1-1.4s-1.6,5.5-.8,5.8c.9.2,5.3-4.6,6-4.1.7.5-2.4,6.6-1.6,7,.7.4,5.1-4.5,6.2-4.6,1.1,0,.2,3.1.2,4.4s-1.1,3.2,0,3.4c1.1.3,6.4-2.8,6.8-2,.4.8-5,6.2-4.5,7,.5.7,6.7-3.1,7.4-2.5s-3.5,5.1-3,5.8c.5.7,5.4-2,6.2-1.5.7.6-2.2,4-1.8,4.8.4.9,3.8-.8,3.9.3.1,1.1-4.4,5.8-3.4,6.2,1,.3,8.8-4.8,9.4-4.1.6.6-5.7,6.8-5.8,8.1-.2,1.2,3.3-.6,4.8-.5s4.3-.1,3.9,1c-.4,1.1-6.7,4.8-6.4,5.5.4.8,7.9-1.6,8.5-.9.6.7-5.7,4.3-5,4.9.6.7,8-1.7,8.6-1,.6.7-5.1,4-5.2,5-.1,1,4.2,0,4.5.8.3.8-3.6,3.4-2.8,3.9.8.6,7-1.2,7.7-.6.6.6-3.2,3.7-3.8,4.4"/>
  <path class="st35" d="M90.6,42c.6.4,3.6,1.7,3.4,2.6-.2.8-4.4,1.7-4.7,2.5-.3.9,3.2,1.8,3,2.6-.2.9-4.5,1.7-4.5,2.6.1.8,5.2,1.7,5,2.6-.2.8-6,1.7-5.9,2.5,0,.9,6.3,1.7,6.1,2.6s-7.4,1.7-7.2,2.6c.2.8,8.2,1.7,8.2,2.5.1.9-7.9,1.8-7.8,2.6.1.9,8.5,1.7,8.6,2.6.1.8-7.6,1.7-8,2.6-.4.8,5,1.7,5.6,2.5.7.9-.6,2.7-1.8,2.6-1.2-.1-5-4.3-5.4-3.2-.3,1,3.9,8.9,3.3,9.5-.6.6-6.2-6-7.1-5.8-.8.2,2.3,6.4,1.8,7.3-.5.8-4.1-3-4.7-2.3s2.2,6.4,1.3,6.6c-1,.1-6.2-6.1-7.1-5.8-.8.3,2.5,6.9,1.9,7.5-.6.7-5.1-4.4-5.6-3.6-.6.7,3.1,7.7,2.4,8.2-.7.5-5.9-5.5-6.7-5.2-.8.4,2.4,6.7,1.8,7.3s-4.9-4-5.5-3.4,2.1,6.2,1.6,7.1c-.5.8-3.4-2.6-4.6-2.2s-3.4,3.9-2.8,4.6c.6.6,5.9-1.3,6.4-.6s-4.1,4.3-3.4,4.8c.7.6,7.1-1.9,7.7-1.3.7.6-4,4.3-3.7,5,.4.8,5.8-1.2,5.9-.3.2.9-5.2,5-4.8,5.7.5.8,6.9-1.8,7.5-1.2.7.6-3.9,4.2-3.5,4.9.5.8,5.5-1,6.3-.5.7.6-1,2.6-1.6,3.9s-3,3.1-2.3,3.7c.7.6,5.8-.7,6.5,0,.6.6-3.2,3.1-2.7,3.9.4.7,5.6-.6,5.3.4-.2,1-7.4,5-6.7,5.6.7.6,10.5-2.7,10.9-2,.5.7-8.2,5.4-8.1,6.3.1.9,8.1-1.7,8.5-1,.5.7-5.6,4.3-5.8,5.3-.3,1,3.7.7,4.4.8"/>
  <path class="st15" d="M90.6,42c.4.4,2.8,1.7,2.2,2.6-.6.8-5.6,1.7-5.9,2.5-.2.9,4.1,1.8,4.4,2.6.2.9-2.9,1.7-2.7,2.6.1.8,3.9,1.7,3.6,2.6-.3.8-5.8,1.7-5.4,2.5.4.9,7.1,1.7,7.6,2.6s-4.8,1.7-4.7,2.6c.1.8,5.7,1.7,5.3,2.5-.3.9-7,1.8-7.3,2.6-.3.9,5.5,1.7,5.3,2.6-.2.8-6.3,1.7-6.4,2.6-.1.8,5.3,1.7,5.9,2.5.7.9-1,2.2-1.9,2.6s-2.9-1.2-3.3-.3c-.5,1,1.5,5.4.7,5.8s-4.8-3.9-5.4-3.3c-.6.7,2.5,6.8,1.7,7.2-.7.5-5.4-4.8-6.1-4.4-.8.4,2.3,6.5,1.4,6.8-.9.3-5.8-5.5-6.6-5-.8.4,2.5,6.7,2,7.5-.5.9-4.2-3.1-5-2.6-.8.4,1.4,5.1.4,5.2s-5.5-5-6.4-4.7c-.8.3,1.9,5.9,1.3,6.6-.5.7-4.2-3.1-4.7-2.3-.5.9,2.3,6.5,1.8,7.4-.4.9-3.1-1.7-4.4-1.9s-3.2-.3-3.4.7c-.2.9,2.8,4.5,2,5-.8.5-6.1-2.6-6.9-2.1-.7.6,3.2,4.9,2.6,5.5-.7.6-6-2.5-6.4-1.7-.4.8,4.4,5.8,3.9,6.6-.4.7-6.3-2.8-6.7-2-.3.9,5,6.3,4.6,7.1s-6.2-2.7-7-2.2,3,4.7,2.3,5.3c-.7.5-5.9-2.5-6.7-2-.9.5,1,3.4,1.7,4.8s3.5,3.3,2.3,3.7c-1.1.5-8.9-2-9.3-1.3-.3.8,6.8,4.8,7.1,5.8.3,1.1-5.2-.4-5.4.4-.1.9,5.4,4.2,4.5,4.7-.9.5-9.5-2.3-10.1-1.6-.6.6,6.8,4.7,6.5,5.5-.2.9-7.7-1.5-7.9-.7-.3.8,6,4.5,6.4,5.5.4,1.1-3.4.8-4.1,1"/>
  <circle class="st29" cx="28" cy="148" r="4"/>
  <circle class="st3" cx="65" cy="148" r="4"/>
  <circle class="st34" cx="100" cy="148" r="4"/>
  <circle class="st3" cx="82" cy="148" r="4"/>
  <circle class="st7" cx="133" cy="148" r="4"/>
  <circle class="st29" cx="48.43" cy="148" r="4"/>
  <circle class="st8" cx="90.6" cy="42" r="2.5"/>
  <g class="st5">
    <g class="st5">
      <text class="st17" transform="translate(47.68 173)"><tspan x="0" y="0">MitoDrift</tspan></text>
    </g>
  </g>
  <circle class="st34" cx="118.5" cy="148" r="4"/>
  <circle class="st32" cx="153" cy="148" r="4"/>
</svg>